<svg width="58" height="124" viewBox="0 0 58 124" fill="none" xmlns="http://www.w3.org/2000/svg">
<path d="M19.601 55.545L17.982 117.519" stroke="#0180BE" stroke-width="2" stroke-linecap="round" stroke-linejoin="round"/>
<path d="M4.76491 34.885C4.76491 34.885 9.62097 40.827 9.35097 48.118L8.00197 103.342C8.00197 103.342 6.38292 113.468 10.7019 116.034L16.908 120.759C16.908 120.759 18.9329 124.27 26.0829 121.159L37.1459 117.378C38.2965 116.902 39.2814 116.097 39.9774 115.064C40.6735 114.031 41.05 112.816 41.06 111.571L43.3529 49.732C44.5885 49.1401 45.7274 48.3646 46.731 47.432C49.8494 45.8682 52.4136 43.3862 54.078 40.3203C55.7425 37.2544 56.4272 33.752 56.0399 30.285C56.0399 30.285 57.9289 20.834 51.8569 16.378L26.221 3.14701C23.9396 1.98849 21.3805 1.48849 18.8308 1.7031C16.2811 1.91771 13.8416 2.83841 11.7859 4.36198C11.7859 4.36198 -0.627021 12.328 1.26198 26.506C1.25198 26.515 1.79191 31.916 4.76491 34.885Z" stroke="#0180BE" stroke-width="2" stroke-linecap="round" stroke-linejoin="round"/>
<path d="M51.848 16.389C51.848 16.389 37.6781 9.63699 27.2921 24.895C27.2921 24.895 17.438 42.988 31.07 50.01C31.07 50.01 38.0861 53.924 43.3491 49.74" stroke="#0180BE" stroke-width="2" stroke-linecap="round" stroke-linejoin="round"/>
<path d="M56.031 30.296C55.3804 27.5917 53.8645 25.1739 51.714 23.41L47.532 21.11C47.532 21.11 38.087 18.41 32.556 29.345C32.556 29.345 28.6429 39.205 33.0959 43.387L37.412 46.492C37.412 46.492 40.785 49.058 46.723 47.438" stroke="#0180BE" stroke-width="2" stroke-linecap="round" stroke-linejoin="round"/>
<path d="M51.712 23.4091C50.3124 23.2025 48.8902 23.2001 47.4899 23.402C43.7769 23.909 38.6159 25.986 36.3289 33.262C36.3289 33.262 32.957 45.955 40.377 47.709" stroke="#0180BE" stroke-width="2" stroke-linecap="round" stroke-linejoin="round"/>
<path d="M37.0119 44.607C37.0119 44.607 45.512 49.332 50.639 38.53C50.639 38.53 54.685 27.459 48.883 23.411" stroke="#0180BE" stroke-width="2" stroke-linecap="round" stroke-linejoin="round"/>
<path d="M36.3249 74.487L32.478 75.759C32.0265 75.8798 31.5525 75.8893 31.0965 75.7867C30.6406 75.6841 30.2163 75.4726 29.8601 75.17C29.5038 74.8675 29.2263 74.4831 29.0512 74.0497C28.8762 73.6164 28.8088 73.1471 28.8549 72.682L28.9919 67.667C28.9896 67.0007 29.2025 66.3515 29.5989 65.816C29.9954 65.2805 30.5541 64.8874 31.192 64.695L35.359 63.623C35.8224 63.5345 36.3004 63.5592 36.7523 63.6952C37.2041 63.8311 37.6164 64.0742 37.9541 64.4037C38.2917 64.7333 38.5448 65.1395 38.6917 65.5879C38.8387 66.0363 38.8751 66.5135 38.7979 66.979L38.342 71.798C38.3013 72.3931 38.0892 72.9637 37.7313 73.4408C37.3733 73.918 36.8848 74.2814 36.3249 74.487Z" stroke="#0180BE" stroke-width="2" stroke-linecap="round" stroke-linejoin="round"/>
<path d="M35.8519 92.034L32.0039 93.305C31.5525 93.4259 31.0785 93.4354 30.6226 93.3328C30.1666 93.2303 29.7424 93.0186 29.3862 92.7161C29.0301 92.4135 28.7527 92.0291 28.5778 91.5957C28.4028 91.1624 28.3356 90.693 28.382 90.228L28.517 85.213C28.5146 84.5466 28.7274 83.8973 29.1238 83.3616C29.5202 82.8259 30.079 82.4325 30.7169 82.24L34.8839 81.168C35.3474 81.0802 35.8252 81.1055 36.2769 81.2418C36.7285 81.378 37.1405 81.6212 37.4782 81.9506C37.8158 82.2801 38.069 82.6861 38.2162 83.1343C38.3634 83.5824 38.4004 84.0595 38.324 84.525L37.871 89.342C37.8303 89.9377 37.6181 90.509 37.2598 90.9867C36.9015 91.4644 36.4125 91.8282 35.8519 92.034Z" stroke="#0180BE" stroke-width="2" stroke-linecap="round" stroke-linejoin="round"/>
</svg>
