<svg xmlns="http://www.w3.org/2000/svg" xmlns:xlink="http://www.w3.org/1999/xlink" width="280" height="280" viewBox="0 0 280 280">
  <defs>
    <filter id="사각형_622" x="0" y="0" width="240" height="240" filterUnits="userSpaceOnUse">
      <feOffset dx="-20" dy="-20" input="SourceAlpha"/>
      <feGaussianBlur stdDeviation="10" result="blur"/>
      <feFlood flood-color="#6398b1" flood-opacity="0.188"/>
      <feComposite operator="in" in2="blur"/>
      <feComposite in="SourceGraphic"/>
    </filter>
    <filter id="사각형_623" x="40" y="40" width="240" height="240" filterUnits="userSpaceOnUse">
      <feOffset dx="20" dy="20" input="SourceAlpha"/>
      <feGaussianBlur stdDeviation="10" result="blur-2"/>
      <feFlood flood-color="#fff" flood-opacity="0.522"/>
      <feComposite operator="in" in2="blur-2"/>
      <feComposite in="SourceGraphic"/>
    </filter>
    <linearGradient id="linear-gradient" x1="-0.241" y1="0.271" x2="0.898" y2="0.955" gradientUnits="objectBoundingBox">
      <stop offset="0" stop-color="#fff"/>
      <stop offset="1" stop-color="#f6f7f9"/>
    </linearGradient>
    <clipPath id="clip-path">
      <path id="패스_608" data-name="패스 608" d="M25.835,0C14.193,0,5.794,5.956.8,10.952A2.719,2.719,0,0,0,0,12.844v.069A2.724,2.724,0,0,0,4.649,14.8c4.269-4.267,11.409-9.356,21.186-9.356A31.313,31.313,0,0,1,47.7,14.8a2.724,2.724,0,1,0,3.852-3.852A36.8,36.8,0,0,0,25.835,0Z" fill="#e0e0e0"/>
    </clipPath>
    <clipPath id="clip-path-2">
      <path id="패스_609" data-name="패스 609" d="M9.349,22.454A2.724,2.724,0,0,0,13.2,26.306c2.653-2.653,7-5.815,12.634-5.815a19.417,19.417,0,0,1,13.317,5.815A2.724,2.724,0,1,0,43,22.454a24.971,24.971,0,0,0-17.169-7.41c-5.937,0-11.638,2.561-16.486,7.41" fill="#e0e0e0"/>
    </clipPath>
    <clipPath id="clip-path-3">
      <path id="패스_611" data-name="패스 611" d="M13.242,50.734a26.377,26.377,0,0,1,2.655-2,33.454,33.454,0,0,0,5.95,6.95,26.6,26.6,0,0,1-8.605-4.951m31.963-2.066A26.535,26.535,0,0,1,47.917,50.7a26.631,26.631,0,0,1-8.685,5,33.926,33.926,0,0,0,5.974-7.03M19.343,46.8a26.331,26.331,0,0,1,9.176-2.4L28.5,55.749A29.631,29.631,0,0,1,19.343,46.8m13.114-2.416a26.352,26.352,0,0,1,9.306,2.368,29.814,29.814,0,0,1-9.329,9.124ZM4,31.7h6.627a33.62,33.62,0,0,0,3.341,13.575,30.689,30.689,0,0,0-3.513,2.672A26.478,26.478,0,0,1,4,31.7m10.564,0H28.544l-.018,8.73a30.266,30.266,0,0,0-11.127,2.9A29.714,29.714,0,0,1,14.559,31.7m17.905,8.715.018-8.715H46.556A29.614,29.614,0,0,1,43.7,43.286a30.293,30.293,0,0,0-11.238-2.871M47.131,45.2a33.533,33.533,0,0,0,3.362-13.5h6.627a26.464,26.464,0,0,1-6.413,16.2,30.7,30.7,0,0,0-3.575-2.7M32.5,20.678a30.356,30.356,0,0,0,11.207-2.822,29.661,29.661,0,0,1,2.735,9.907H32.49Zm-15.062-3a30.283,30.283,0,0,0,11.126,2.971l-.016,7.11H14.665a29.553,29.553,0,0,1,2.776-10.081m29.719-1.7a30.64,30.64,0,0,0,3.6-2.719,26.482,26.482,0,0,1,6.272,14.5H50.4A33.586,33.586,0,0,0,47.16,15.986M10.54,13.068A30.6,30.6,0,0,0,14,15.752a33.537,33.537,0,0,0-3.29,12.011H4.088a26.487,26.487,0,0,1,6.452-14.7m2.8-2.772a26.593,26.593,0,0,1,8.489-4.857,33.262,33.262,0,0,0-5.9,6.875A26.562,26.562,0,0,1,13.338,10.3M39.208,5.41a26.6,26.6,0,0,1,8.766,5.064,26.843,26.843,0,0,1-2.719,2.061A33.988,33.988,0,0,0,39.208,5.41M19.38,14.246A29.577,29.577,0,0,1,28.6,5.309l-.023,11.406a26.355,26.355,0,0,1-9.194-2.469M32.536,5.307a29.842,29.842,0,0,1,9.251,9.1,26.484,26.484,0,0,1-9.274,2.328ZM30.557,0a30.554,30.554,0,0,0-.487,61.1,1.906,1.906,0,0,0,.387.054,1.95,1.95,0,0,0,.441-.051A30.555,30.555,0,0,0,30.557,0Z" fill="#e0e0e0"/>
    </clipPath>
  </defs>
  <g id="그룹_440" data-name="그룹 440" transform="translate(-202 -244)">
    <g id="그룹_36" data-name="그룹 36" transform="translate(252.254 294.254)">
      <g id="그룹_25" data-name="그룹 25" transform="translate(-0.254 -0.254)">
        <g transform="matrix(1, 0, 0, 1, -50, -50)" filter="url(#사각형_622)">
          <rect id="사각형_622-2" data-name="사각형 622" width="180" height="180" rx="38" transform="translate(50 50)" fill="#fff" opacity="0.3"/>
        </g>
        <g transform="matrix(1, 0, 0, 1, -50, -50)" filter="url(#사각형_623)">
          <rect id="사각형_623-2" data-name="사각형 623" width="180" height="180" rx="38" transform="translate(50 50)" fill="#fff"/>
        </g>
        <rect id="사각형_624" data-name="사각형 624" width="180" height="180" rx="38" fill="url(#linear-gradient)"/>
      </g>
    </g>
    <g id="그룹_439" data-name="그룹 439" transform="translate(10 16.384)">
      <g id="그룹_435" data-name="그룹 435" transform="translate(305.824 317.653)">
        <g id="그룹_430" data-name="그룹 430">
          <g id="그룹_429" data-name="그룹 429" clip-path="url(#clip-path)">
            <rect id="사각형_721" data-name="사각형 721" width="52.618" height="15.868" transform="translate(0 0)" fill="#e0e0e0"/>
          </g>
        </g>
        <g id="그룹_432" data-name="그룹 432">
          <g id="그룹_431" data-name="그룹 431" clip-path="url(#clip-path-2)">
            <rect id="사각형_722" data-name="사각형 722" width="35.783" height="12.326" transform="translate(8.285 15.044)" fill="#e0e0e0"/>
          </g>
        </g>
      </g>
      <g id="그룹_437" data-name="그룹 437" transform="translate(301.442 364.421)">
        <g id="그룹_436" data-name="그룹 436" clip-path="url(#clip-path-3)">
          <rect id="사각형_724" data-name="사각형 724" width="61.116" height="61.158" transform="translate(0 0)" fill="#e0e0e0"/>
        </g>
      </g>
      <g id="그룹_438" data-name="그룹 438" transform="translate(0 -35)">
        <line id="선_210" data-name="선 210" x2="10.399" y2="10.4" transform="translate(326.8 382.601)" fill="none" stroke="#ff6767" stroke-linecap="round" stroke-linejoin="round" stroke-width="4"/>
        <line id="선_211" data-name="선 211" x1="10.399" y2="10.4" transform="translate(326.8 382.601)" fill="none" stroke="#ff6767" stroke-linecap="round" stroke-linejoin="round" stroke-width="4"/>
      </g>
    </g>
  </g>
</svg>
