<svg width="18" height="15" viewBox="0 0 18 15" fill="none" xmlns="http://www.w3.org/2000/svg">
<path d="M11.352 15C10.4469 14.9256 9.6075 14.4979 9.01538 13.8094C8.42326 13.1209 8.12606 12.2269 8.18799 11.3209L8.17596 3.67896C8.24799 3.42601 8.26038 3.15978 8.2121 2.90125C8.16381 2.64271 8.05618 2.39898 7.89771 2.18909C7.73923 1.97919 7.53425 1.80889 7.29883 1.69165C7.06341 1.57441 6.80396 1.51343 6.54095 1.51343C6.27795 1.51343 6.01857 1.57441 5.78314 1.69165C5.54772 1.80889 5.34267 1.97919 5.1842 2.18909C5.02573 2.39898 4.91816 2.64271 4.86987 2.90125C4.82159 3.15978 4.83391 3.42601 4.90594 3.67896C4.90594 3.67896 4.90594 3.68404 4.90594 3.68604L4.89398 4.90503C4.95535 5.81058 4.65783 6.70382 4.06573 7.39172C3.47364 8.07963 2.63457 8.50681 1.72998 8.58093H1.19196C0.993983 8.57377 0.806531 8.49012 0.669006 8.34753C0.531482 8.20495 0.45459 8.01463 0.45459 7.81653C0.45459 7.61843 0.531482 7.42799 0.669006 7.2854C0.806531 7.14281 0.993983 7.05916 1.19196 7.052H1.72998C2.22745 6.97423 2.6755 6.70694 2.98029 6.30615C3.28507 5.90536 3.42296 5.40215 3.36499 4.90198C3.36499 4.90198 3.36499 4.89692 3.36499 4.89392L3.37695 3.67493C3.30804 3.21941 3.33828 2.75439 3.46564 2.31165C3.59299 1.8689 3.81446 1.45889 4.11487 1.10962C4.41528 0.760344 4.78759 0.480112 5.2063 0.287964C5.62501 0.0958156 6.08026 -0.00366211 6.54095 -0.00366211C7.00165 -0.00366211 7.4569 0.0958156 7.87561 0.287964C8.29432 0.480112 8.66663 0.760344 8.96704 1.10962C9.26745 1.45889 9.48892 1.8689 9.61627 2.31165C9.74363 2.75439 9.77387 3.21941 9.70496 3.67493L9.71698 11.317C9.64495 11.57 9.63256 11.8361 9.68085 12.0946C9.72913 12.3531 9.83677 12.597 9.99524 12.8069C10.1537 13.0168 10.3587 13.1871 10.5941 13.3043C10.8295 13.4216 11.089 13.4825 11.352 13.4825C11.615 13.4825 11.8744 13.4216 12.1098 13.3043C12.3452 13.1871 12.5502 13.0168 12.7087 12.8069C12.8671 12.597 12.9748 12.3531 13.0231 12.0946C13.0714 11.8361 13.059 11.57 12.9869 11.317L12.9949 10.0399C12.9336 9.13426 13.2311 8.24092 13.8232 7.55286C14.4152 6.86479 15.2543 6.43729 16.1589 6.36292H16.5729C16.7757 6.36292 16.9702 6.44354 17.1135 6.58691C17.2569 6.73029 17.3375 6.92468 17.3375 7.12744C17.3375 7.3302 17.2569 7.52472 17.1135 7.66809C16.9702 7.81146 16.7757 7.89197 16.5729 7.89197H16.1589C15.6615 7.96974 15.2134 8.23703 14.9086 8.63782C14.6038 9.03861 14.466 9.54182 14.524 10.042L14.516 11.319C14.5785 12.2253 14.2814 13.1198 13.6893 13.8087C13.0971 14.4977 12.2574 14.9256 11.352 15Z" fill="url(#paint0_linear_1_626)"/>
<defs>
<linearGradient id="paint0_linear_1_626" x1="1.34938" y1="7.49817" x2="16.6453" y2="7.49817" gradientUnits="userSpaceOnUse">
<stop stop-color="#BBF0DE"/>
<stop offset="1" stop-color="#0180BE"/>
</linearGradient>
</defs>
</svg>
