<svg width="230" height="173" viewBox="0 0 230 173" fill="none" xmlns="http://www.w3.org/2000/svg">
<mask id="mask0_1_543" style="mask-type:luminance" maskUnits="userSpaceOnUse" x="0" y="0" width="230" height="173">
<path d="M229.5 0H0.5V172.708H229.5V0Z" fill="white"/>
</mask>
<g mask="url(#mask0_1_543)">
<path d="M161.219 96.872V74.685L169.056 80.314L152.994 91.852" stroke="#0180BE" stroke-width="2" stroke-linecap="round" stroke-linejoin="round"/>
<path d="M161.219 75.349V97.536L169.056 91.906L152.994 80.37" stroke="#0180BE" stroke-width="2" stroke-linecap="round" stroke-linejoin="round"/>
<path d="M51.662 65.584L58.8311 69.571C58.8311 69.571 59.631 69.771 60.031 71.365C60.431 72.959 59.031 140.319 59.031 140.319L52.062 135.735L49.8719 132.347L49.072 127.564L50.864 65.185L51.662 65.584Z" fill="#C5F1FF"/>
<path d="M60.601 74.545L58.982 136.519" stroke="#0180BE" stroke-width="2" stroke-linecap="round" stroke-linejoin="round"/>
<path d="M45.7649 53.885C45.7649 53.885 50.621 59.827 50.351 67.118L49.002 122.342C49.002 122.342 47.3829 132.468 51.7019 135.034L57.908 139.759C57.908 139.759 59.9329 143.27 67.0829 140.159L78.1459 136.378C79.2965 135.902 80.2814 135.097 80.9774 134.064C81.6735 133.031 82.05 131.816 82.06 130.571L84.3529 68.732C85.5885 68.1401 86.7274 67.3646 87.731 66.432C90.8494 64.8682 93.4136 62.3862 95.078 59.3203C96.7425 56.2544 97.4272 52.752 97.0399 49.285C97.0399 49.285 98.9289 39.834 92.8569 35.378L67.221 22.147C64.9396 20.9885 62.3805 20.4885 59.8308 20.7031C57.2811 20.9177 54.8416 21.8384 52.7859 23.362C52.7859 23.362 40.373 31.328 42.262 45.506C42.252 45.515 42.7919 50.916 45.7649 53.885Z" stroke="#0180BE" stroke-width="2" stroke-linecap="round" stroke-linejoin="round"/>
<path d="M92.848 35.389C92.848 35.389 78.6781 28.637 68.2921 43.895C68.2921 43.895 58.438 61.988 72.07 69.01C72.07 69.01 79.0861 72.924 84.3491 68.74" stroke="#0180BE" stroke-width="2" stroke-linecap="round" stroke-linejoin="round"/>
<path d="M97.031 49.296C96.3804 46.5917 94.8645 44.1739 92.714 42.41L88.532 40.11C88.532 40.11 79.087 37.41 73.556 48.345C73.556 48.345 69.6429 58.205 74.0959 62.387L78.412 65.492C78.412 65.492 81.785 68.058 87.723 66.438" stroke="#0180BE" stroke-width="2" stroke-linecap="round" stroke-linejoin="round"/>
<path d="M92.712 42.4091C91.3124 42.2025 89.8902 42.2001 88.4899 42.402C84.7769 42.909 79.6159 44.986 77.3289 52.262C77.3289 52.262 73.957 64.955 81.377 66.709" stroke="#0180BE" stroke-width="2" stroke-linecap="round" stroke-linejoin="round"/>
<path d="M78.0119 63.607C78.0119 63.607 86.512 68.332 91.639 57.53C91.639 57.53 95.685 46.459 89.883 42.411" stroke="#0180BE" stroke-width="2" stroke-linecap="round" stroke-linejoin="round"/>
<path d="M77.3249 93.487L73.478 94.759C73.0265 94.8798 72.5525 94.8893 72.0965 94.7867C71.6406 94.6841 71.2163 94.4726 70.8601 94.17C70.5038 93.8675 70.2263 93.4831 70.0512 93.0497C69.8762 92.6164 69.8088 92.1471 69.8549 91.682L69.9919 86.667C69.9896 86.0007 70.2025 85.3515 70.5989 84.816C70.9954 84.2805 71.5541 83.8874 72.192 83.695L76.359 82.623C76.8224 82.5345 77.3004 82.5592 77.7523 82.6952C78.2041 82.8311 78.6164 83.0742 78.9541 83.4037C79.2917 83.7333 79.5448 84.1395 79.6917 84.5879C79.8387 85.0363 79.8751 85.5135 79.7979 85.979L79.342 90.798C79.3013 91.3931 79.0892 91.9637 78.7313 92.4408C78.3733 92.918 77.8848 93.2814 77.3249 93.487Z" stroke="#0180BE" stroke-width="2" stroke-linecap="round" stroke-linejoin="round"/>
<path d="M76.8519 111.034L73.0039 112.305C72.5525 112.426 72.0785 112.435 71.6226 112.333C71.1666 112.23 70.7424 112.019 70.3862 111.716C70.0301 111.414 69.7527 111.029 69.5778 110.596C69.4028 110.162 69.3356 109.693 69.382 109.228L69.517 104.213C69.5146 103.547 69.7274 102.897 70.1238 102.362C70.5202 101.826 71.079 101.433 71.7169 101.24L75.8839 100.168C76.3474 100.08 76.8252 100.106 77.2769 100.242C77.7285 100.378 78.1405 100.621 78.4782 100.951C78.8158 101.28 79.069 101.686 79.2162 102.134C79.3634 102.582 79.4004 103.059 79.324 103.525L78.871 108.342C78.8303 108.938 78.6181 109.509 78.2598 109.987C77.9015 110.464 77.4125 110.828 76.8519 111.034Z" stroke="#0180BE" stroke-width="2" stroke-linecap="round" stroke-linejoin="round"/>
<path d="M183.066 36.222H139.846C137.153 36.222 134.97 38.405 134.97 41.098V130.925C134.97 133.618 137.153 135.801 139.846 135.801H183.066C185.759 135.801 187.942 133.618 187.942 130.925V41.098C187.942 38.405 185.759 36.222 183.066 36.222Z" stroke="#0180BE" stroke-width="2" stroke-linecap="round" stroke-linejoin="round"/>
<path d="M171.413 36.222H151.499V41.205H171.413V36.222Z" stroke="#0180BE" stroke-width="2" stroke-linecap="round" stroke-linejoin="round"/>
<path d="M100.94 78.328C102.343 76.8736 104.053 75.7522 105.947 75.0463C107.84 74.3404 109.867 74.0679 111.879 74.2489C113.892 74.43 115.838 75.0599 117.575 76.0924C119.311 77.1248 120.795 78.5336 121.915 80.215" stroke="#0180BE" stroke-width="2" stroke-linecap="round" stroke-linejoin="round"/>
<path d="M105.749 100.329C102.645 99.1112 100.099 96.7919 98.5985 93.8147C97.0976 90.8375 96.7471 87.4115 97.614 84.192" stroke="#0180BE" stroke-width="2" stroke-linecap="round" stroke-linejoin="round"/>
<path d="M124.162 86.985C124.175 87.229 124.182 87.4754 124.182 87.724C124.183 90.9556 123.028 94.0807 120.924 96.534C118.821 98.9873 115.909 100.607 112.715 101.099" stroke="#0180BE" stroke-width="2" stroke-linecap="round" stroke-linejoin="round"/>
<path d="M104.141 78.771H100.375V75.002" stroke="#0180BE" stroke-width="2" stroke-linecap="round" stroke-linejoin="round"/>
<path d="M121.487 89.102L124.15 86.438L126.813 89.102" stroke="#0180BE" stroke-width="2" stroke-linecap="round" stroke-linejoin="round"/>
<path d="M105.097 97.038L106.326 100.6L102.766 101.831" stroke="#0180BE" stroke-width="2" stroke-linecap="round" stroke-linejoin="round"/>
</g>
</svg>
