<svg width="230" height="174" viewBox="0 0 230 174" fill="none" xmlns="http://www.w3.org/2000/svg">
<mask id="mask0_1_486" style="mask-type:luminance" maskUnits="userSpaceOnUse" x="0" y="0" width="230" height="174">
<path d="M229.5 0.708008H0.5V173.416H229.5V0.708008Z" fill="white"/>
</mask>
<g mask="url(#mask0_1_486)">
<path opacity="0.72" d="M127.715 13.863C136.452 17.079 145.215 20.525 152.893 25.789C160.571 31.053 167.193 38.331 170.051 47.2C172.776 56.2256 171.875 65.9579 167.54 74.33C163.165 82.6317 156.343 89.3868 147.998 93.679C147.352 94.0705 146.635 94.3288 145.888 94.439C143.668 94.627 142.058 92.446 140.925 90.526C140.515 89.9819 140.308 89.3114 140.341 88.631C140.576 87.277 142.341 87.013 143.646 86.578C144.788 86.1244 145.799 85.3938 146.587 84.4519C147.376 83.51 147.918 82.3866 148.164 81.183C148.63 78.7661 148.505 76.2724 147.801 73.914C147.093 71.105 145.579 67.999 142.735 67.44C141.477 67.195 140.172 67.512 138.897 67.379C136.27 67.103 134.211 64.974 132.831 62.718C125.898 51.396 132.246 29.991 118.441 23.653C115.3 22.211 108.593 22.012 109.114 17.442C110.09 8.91001 123.148 12.18 127.715 13.863Z" fill="#0180BE"/>
<path d="M136.445 179.436C136.533 178.936 135.516 179.298 135.745 179.756C135.974 180.214 136.615 180.21 137.122 180.132L159.687 176.856C159.146 170.319 158.604 157.135 158.061 150.597C157.34 141.897 156.595 133.097 153.722 124.854C151.253 117.772 147.26 111.268 145.145 104.071C144.857 102.66 144.283 101.324 143.457 100.145C141.429 97.73 137.684 97.984 134.606 98.664C129.163 99.8702 123.888 101.741 118.901 104.234C115.178 105.934 111.83 108.355 109.048 111.357C107.669 112.867 106.613 114.644 105.947 116.578C105.281 118.512 105.018 120.562 105.175 122.602C105.524 124.131 105.696 125.695 105.685 127.264C105.457 128.559 104.998 129.802 104.33 130.934L95.211 148.682C94.7666 149.426 94.471 150.249 94.3409 151.105C94.1139 153.757 96.885 155.559 99.273 156.728L103.605 151.728C105.602 156.231 109.23 159.811 113.759 161.749C117.399 163.287 121.465 163.687 125.004 165.449C128.543 167.211 131.59 171.122 130.412 174.896C133.746 175.366 133.318 180.689 136.445 179.436Z" fill="#D2F1E7"/>
<path d="M134.794 32.497C134.794 32.497 125.785 14.705 116.308 19.686C116.308 19.686 113.226 21.822 114.175 26.804C114.175 26.804 88.1218 42.492 83.5318 66.404C83.4163 67.0255 83.5307 67.6678 83.8536 68.2112C84.1764 68.7547 84.6859 69.1622 85.2869 69.358C86.0746 69.5841 86.7807 70.0319 87.3211 70.648C87.8615 71.2641 88.2135 72.0225 88.335 72.833C88.398 73.1859 88.3895 73.5479 88.3103 73.8976C88.2312 74.2473 88.0827 74.5776 87.8738 74.869C87.4202 75.4825 87.1674 76.2212 87.1499 76.984C87.1499 78.703 86.9719 79.653 89.7569 81.372C92.5419 83.091 90.1719 85.465 90.1719 85.465C90.1719 85.465 87.4449 88.312 90.5279 89.557C90.5279 89.557 91.2368 89.677 91.0008 90.566C91.0008 90.566 88.1009 96.556 94.8489 95.192C98.4079 94.3967 102.047 94.0185 105.694 94.065C105.694 94.065 112.272 93.293 112.924 105.453C112.924 105.453 96.9808 108.773 104.271 126.206" stroke="#0180BE" stroke-width="2" stroke-linecap="round" stroke-linejoin="round"/>
<path d="M97.3509 70.336C97.3509 70.336 88.8061 81.13 98.0511 89.196" stroke="#0180BE" stroke-width="2" stroke-linecap="round" stroke-linejoin="round"/>
<path d="M106.164 31.548C106.164 31.548 106.935 23.72 104.802 21.229C102.669 18.738 105.868 12.329 113.217 12.57C120.566 12.811 180.779 18.857 175.446 67.965C175.336 69.3481 174.943 70.6939 174.291 71.9185C173.638 73.1431 172.741 74.2202 171.654 75.083C171.654 75.083 156.718 88.25 149.254 92.756C148.205 93.2119 147.293 93.933 146.608 94.8482C145.922 95.7635 145.487 96.8414 145.344 97.976C145.344 97.976 131.594 97.383 113.221 104.976" stroke="#0180BE" stroke-width="2" stroke-linecap="round" stroke-linejoin="round"/>
<path d="M118.406 26.393C118.406 26.393 124.955 22.064 126.615 37.365C128.275 52.666 125.549 60.022 138.115 68.565" stroke="#0180BE" stroke-width="2" stroke-linecap="round" stroke-linejoin="round"/>
<path d="M134.315 72.829C134.315 72.829 141.961 62.005 147.295 75.319C152.687 88.782 133.248 88.842 133.248 88.842" stroke="#0180BE" stroke-width="2" stroke-linecap="round" stroke-linejoin="round"/>
<path d="M105.399 58.592C106.512 58.592 107.414 57.1051 107.414 55.271C107.414 53.4368 106.512 51.95 105.399 51.95C104.286 51.95 103.384 53.4368 103.384 55.271C103.384 57.1051 104.286 58.592 105.399 58.592Z" stroke="#0180BE" stroke-width="2" stroke-linecap="round" stroke-linejoin="round"/>
<path d="M145.343 97.974C145.343 97.974 148.543 99.516 146.053 104.141" stroke="#0180BE" stroke-width="2" stroke-linecap="round" stroke-linejoin="round"/>
<path d="M162.055 176.103C161.522 126.284 146.055 104.142 146.055 104.142C146.055 104.142 104.807 108.057 92.895 148.625" stroke="#0180BE" stroke-width="2" stroke-linecap="round" stroke-linejoin="round"/>
<path d="M88.805 86.958H81.4551V79.485H86.532" stroke="#0180BE" stroke-width="2" stroke-linecap="round" stroke-linejoin="round"/>
<path d="M24.2519 76.834C25.2679 76.8332 26.2421 76.429 26.9601 75.7102C27.6782 74.9915 28.0813 74.017 28.081 73.001C28.0813 71.7313 27.5771 70.5135 26.6796 69.6154C25.7821 68.7174 24.5648 68.2125 23.2951 68.212C21.708 68.2125 20.1859 68.8435 19.0639 69.966C17.9419 71.0886 17.3117 72.6108 17.312 74.198C17.3114 76.1821 18.0991 78.0853 19.5016 79.4888C20.9042 80.8923 22.8068 81.6812 24.791 81.682H38.903" stroke="#0180BE" stroke-width="2" stroke-linecap="round" stroke-linejoin="round"/>
<path d="M74.6349 105.985V92.696H61.182V104.617C61.182 104.617 65.5459 109.599 74.6349 105.985Z" stroke="#0180BE" stroke-width="2" stroke-linecap="round" stroke-linejoin="round"/>
<path d="M75.0261 102.898C75.0261 102.898 81.16 103.52 80.804 109.214C80.804 109.214 85.6039 119.534 78.8479 126.114C78.8479 126.114 76.536 134.033 91.738 152.091C91.738 152.091 97.1611 157.696 100.538 158.946C100.538 158.946 111.917 124.607 136.102 120.871" stroke="#0180BE" stroke-width="2" stroke-linecap="round" stroke-linejoin="round"/>
<path d="M60.9491 100.316C60.9491 100.316 54.849 101.162 55.91 111.21C55.91 111.21 53.9631 121.164 56.7931 126.517C56.7931 126.517 66.2562 163.896 77.6622 175.072" stroke="#0180BE" stroke-width="2" stroke-linecap="round" stroke-linejoin="round"/>
<path d="M148.365 140.44C148.365 140.44 146.765 157.698 140.365 170.153C140.365 170.153 108.896 162.853 103.384 152.004" stroke="#0180BE" stroke-width="2" stroke-linecap="round" stroke-linejoin="round"/>
<path d="M151.741 146.756C150.369 148.329 148.75 149.668 146.948 150.722" stroke="#0180BE" stroke-width="2" stroke-linecap="round" stroke-linejoin="round"/>
<path d="M132.009 168.018L129.342 172.644" stroke="#0180BE" stroke-width="2" stroke-linecap="round" stroke-linejoin="round"/>
<path d="M82.772 72.43H46.192V92.636H82.772V72.43Z" fill="white" stroke="#0180BE" stroke-width="2" stroke-linecap="round" stroke-linejoin="round"/>
<path d="M32.844 91.113C32.8444 91.4391 32.7805 91.7621 32.656 92.0635C32.5315 92.3649 32.3488 92.6388 32.1184 92.8696C31.888 93.1004 31.6144 93.2835 31.3132 93.4085C31.012 93.5335 30.6892 93.5979 30.363 93.598C29.9555 93.598 29.552 93.5177 29.1755 93.3616C28.7991 93.2055 28.4571 92.9766 28.1692 92.6882C27.8813 92.3998 27.6531 92.0575 27.4976 91.6808C27.3421 91.3042 27.2623 90.9005 27.2629 90.493C27.2627 89.9835 27.3629 89.4789 27.5576 89.0081C27.7524 88.5372 28.0378 88.1093 28.398 87.7488C28.7581 87.3884 29.1856 87.1023 29.6563 86.9071C30.1269 86.7119 30.6316 86.6113 31.1411 86.611H38.4609" stroke="#0180BE" stroke-width="2" stroke-linecap="round" stroke-linejoin="round"/>
</g>
</svg>
