<svg width="230" height="174" viewBox="0 0 230 174" fill="none" xmlns="http://www.w3.org/2000/svg">
<mask id="mask0_1_573" style="mask-type:luminance" maskUnits="userSpaceOnUse" x="0" y="0" width="230" height="174">
<path d="M229.5 0.708008H0.5V173.416H229.5V0.708008Z" fill="white"/>
</mask>
<g mask="url(#mask0_1_573)">
<path opacity="0.72" d="M160.56 13.862C169.297 17.078 178.054 20.525 185.739 25.789C193.424 31.053 200.039 38.332 202.895 47.199C205.619 56.2245 204.719 65.9565 200.385 74.329C196.01 82.631 189.187 89.3865 180.842 93.679C180.197 94.0702 179.48 94.3282 178.733 94.438C176.513 94.626 174.903 92.446 173.771 90.525C173.36 89.9816 173.153 89.3106 173.187 88.63C173.421 87.276 175.187 87.013 176.487 86.577C177.63 86.1235 178.641 85.3923 179.43 84.4494C180.219 83.5065 180.76 82.3817 181.005 81.177C181.472 78.7606 181.348 76.2671 180.644 73.909C179.934 71.099 178.42 67.993 175.576 67.435C174.317 67.188 173.013 67.507 171.739 67.374C169.11 67.098 167.052 64.968 165.671 62.712C158.739 51.39 165.088 29.986 151.281 23.647C148.14 22.205 141.433 22.006 141.954 17.436C142.934 8.91095 155.995 12.181 160.56 13.862Z" fill="#0180BE"/>
<path d="M169.289 179.437C169.377 178.937 168.361 179.298 168.589 179.757C168.817 180.216 169.458 180.209 169.965 180.133L192.533 176.857C191.991 170.321 191.448 157.137 190.906 150.597C190.184 141.897 189.44 133.097 186.565 124.853C184.096 117.773 180.103 111.267 177.989 104.071C177.702 102.66 177.127 101.324 176.3 100.146C174.271 97.731 170.527 97.985 167.45 98.665C162.008 99.8705 156.735 101.741 151.75 104.235C148.027 105.935 144.678 108.356 141.897 111.359C140.517 112.869 139.462 114.646 138.795 116.58C138.129 118.514 137.866 120.564 138.023 122.604C138.372 124.133 138.543 125.697 138.534 127.265C138.307 128.56 137.847 129.804 137.178 130.936L128.06 148.684C127.66 149.453 120.54 175.478 120.467 176.338C120.242 178.99 126.967 175.347 129.358 176.517C130.802 174.851 136.804 155.053 138.248 153.387C140.204 157.85 142.123 159.857 146.608 161.751C150.248 163.29 154.315 163.691 157.855 165.451C161.395 167.211 164.441 171.123 163.262 174.898C166.589 175.367 166.162 180.687 169.289 179.437Z" fill="#D2F1E7"/>
<path d="M167.638 32.5C167.638 32.5 158.629 14.708 149.148 19.689C149.148 19.689 146.065 21.825 147.014 26.807C147.014 26.807 120.962 42.495 116.371 66.407C116.256 67.0284 116.37 67.6705 116.693 68.2139C117.016 68.7572 117.525 69.1649 118.126 69.361C118.914 69.5869 119.62 70.0346 120.161 70.6507C120.701 71.2668 121.053 72.0254 121.175 72.836C121.175 72.836 121.564 77.136 122.224 81.851C122.6 84.7867 123.14 87.6989 123.842 90.574C123.842 90.574 120.942 96.564 127.694 95.2C131.253 94.4049 134.893 94.0267 138.539 94.073C138.539 94.073 145.118 93.302 145.77 105.461C145.77 105.461 129.826 108.782 137.117 126.214" stroke="#0180BE" stroke-width="2" stroke-linecap="round" stroke-linejoin="round"/>
<path d="M139.016 31.549C139.016 31.549 139.786 23.721 137.653 21.229C135.52 18.737 138.719 12.329 146.07 12.571C153.421 12.813 213.632 18.863 208.297 67.966C208.187 69.3492 207.794 70.6949 207.141 71.9195C206.489 73.1441 205.592 74.2213 204.505 75.084C204.505 75.084 189.569 88.251 182.105 92.758C181.056 93.2138 180.144 93.9346 179.459 94.8497C178.773 95.7647 178.337 96.8425 178.194 97.977C178.194 97.977 164.445 97.384 146.074 104.977" stroke="#0180BE" stroke-width="2" stroke-linecap="round" stroke-linejoin="round"/>
<path d="M151.251 26.389C151.251 26.389 157.799 22.06 159.459 37.361C161.119 52.662 158.392 60.018 170.959 68.561" stroke="#0180BE" stroke-width="2" stroke-linecap="round" stroke-linejoin="round"/>
<path d="M167.165 72.828C167.165 72.828 174.81 62.004 180.143 75.318C185.537 88.781 166.097 88.841 166.097 88.841" stroke="#0180BE" stroke-width="2" stroke-linecap="round" stroke-linejoin="round"/>
<path d="M138.242 58.593C139.355 58.593 140.257 57.1061 140.257 55.272C140.257 53.4379 139.355 51.951 138.242 51.951C137.129 51.951 136.227 53.4379 136.227 55.272C136.227 57.1061 137.129 58.593 138.242 58.593Z" stroke="#0180BE" stroke-width="2" stroke-linecap="round" stroke-linejoin="round"/>
<path d="M178.186 97.975C178.186 97.975 181.386 99.517 178.898 104.142" stroke="#0180BE" stroke-width="2" stroke-linecap="round" stroke-linejoin="round"/>
<path d="M194.903 174.681C194.368 124.861 178.903 104.143 178.903 104.143C178.903 104.143 137.654 108.058 125.741 148.626C125.741 148.626 120.466 163.887 118.69 173.85" stroke="#0180BE" stroke-width="2" stroke-linecap="round" stroke-linejoin="round"/>
<path d="M181.209 140.441C181.209 140.441 179.615 157.699 173.209 170.154C173.209 170.154 141.738 162.86 136.227 152.005C136.227 152.005 143.932 127.943 157.445 124.029" stroke="#0180BE" stroke-width="2" stroke-linecap="round" stroke-linejoin="round"/>
<path d="M184.588 146.757C183.216 148.33 181.597 149.67 179.795 150.723" stroke="#0180BE" stroke-width="2" stroke-linecap="round" stroke-linejoin="round"/>
<path d="M164.853 168.019L162.186 172.645" stroke="#0180BE" stroke-width="2" stroke-linecap="round" stroke-linejoin="round"/>
<path d="M137.532 156.057L130.464 173.416" stroke="#0180BE" stroke-width="2" stroke-linecap="round" stroke-linejoin="round"/>
<path d="M123.065 82.248C123.065 82.248 129.277 82.623 133.265 81.476" stroke="#0180BE" stroke-width="2" stroke-linecap="round" stroke-linejoin="round"/>
<path d="M33.082 99.535L38.488 101.727C38.488 101.727 39.064 101.799 39.488 102.89C39.912 103.981 44.759 151.665 44.759 151.665L39.4399 149.034L37.5991 146.834L36.6259 143.526L32.487 99.326L33.082 99.535Z" fill="#C5F1FF"/>
<path d="M40.17 105.085L44.396 148.985" stroke="#0180BE" stroke-width="2" stroke-linecap="round" stroke-linejoin="round"/>
<path d="M27.903 91.785C27.903 91.785 31.847 95.558 32.288 100.731L36.1201 139.84C36.1201 139.84 35.8549 147.131 39.1249 148.568L43.916 151.368C43.916 151.368 45.6499 153.668 50.4289 150.859L57.913 147.229C58.6843 146.793 59.3098 146.139 59.7116 145.349C60.1134 144.56 60.2736 143.669 60.1721 142.789L56.435 98.929C57.2554 98.4048 57.9918 97.7595 58.6191 97.015C60.6851 95.6403 62.28 93.6654 63.1894 91.3565C64.0987 89.0475 64.2788 86.5153 63.705 84.101C63.705 84.101 64.221 77.262 59.548 74.644L40.3029 67.525C38.5914 66.9054 36.7413 66.7747 34.9597 67.1475C33.178 67.5204 31.5354 68.3821 30.216 69.636C30.216 69.636 22.1411 76.336 24.7031 86.184C24.7031 86.177 25.552 89.952 27.903 91.785Z" stroke="#0180BE" stroke-width="2" stroke-linecap="round" stroke-linejoin="round"/>
<path d="M59.546 74.641C59.546 74.641 48.9589 71.102 42.9459 82.778C42.9459 82.778 37.5579 96.408 47.7899 100.178C47.7899 100.178 53.0829 102.334 56.4349 98.927" stroke="#0180BE" stroke-width="2" stroke-linecap="round" stroke-linejoin="round"/>
<path d="M63.7049 84.0969C63.0122 82.2435 61.7327 80.6674 60.0611 79.609L56.909 78.351C56.909 78.351 50.0089 77.263 47.0479 85.465C47.0479 85.465 45.139 92.765 48.648 95.333L51.9649 97.1509C51.9649 97.1509 54.5649 98.6689 58.6199 97.0109" stroke="#0180BE" stroke-width="2" stroke-linecap="round" stroke-linejoin="round"/>
<path d="M60.0589 79.611C59.0532 79.5883 58.0494 79.7112 57.0789 79.976C54.5009 80.656 51.0368 82.576 50.0518 87.909C50.0518 87.909 48.7709 97.163 54.1609 97.758" stroke="#0180BE" stroke-width="2" stroke-linecap="round" stroke-linejoin="round"/>
<path d="M51.5121 95.854C51.5121 95.854 57.9229 98.454 60.6119 90.385C60.6119 90.385 62.5121 82.216 58.0631 79.859" stroke="#0180BE" stroke-width="2" stroke-linecap="round" stroke-linejoin="round"/>
<path d="M53.6191 117.012L51.0099 118.243C50.7599 118.344 50.4926 118.395 50.2228 118.393C49.9531 118.391 49.6865 118.335 49.4382 118.23C49.1898 118.125 48.9647 117.972 48.7756 117.779C48.5865 117.587 48.4372 117.359 48.3361 117.109C48.2436 116.878 48.193 116.633 48.187 116.385L47.8461 112.832C47.7866 112.361 47.8809 111.883 48.1152 111.47C48.3495 111.058 48.7111 110.731 49.1459 110.541L51.996 109.422C52.3155 109.319 52.6551 109.296 52.9858 109.352C53.3165 109.409 53.6287 109.545 53.8957 109.748C54.1626 109.952 54.3766 110.217 54.5192 110.52C54.6619 110.824 54.729 111.158 54.715 111.493L54.8151 114.933C54.8383 115.358 54.7376 115.781 54.5253 116.15C54.313 116.519 53.9982 116.818 53.6191 117.012Z" stroke="#0180BE" stroke-width="2" stroke-linecap="round" stroke-linejoin="round"/>
<path d="M54.805 129.444L52.1969 130.675C51.8886 130.799 51.5548 130.847 51.224 130.814C50.8931 130.781 50.5752 130.669 50.2974 130.486C50.0197 130.303 49.7905 130.056 49.6295 129.765C49.4684 129.474 49.3804 129.148 49.3729 128.816L49.0318 125.263C48.9725 124.792 49.0671 124.315 49.3014 123.902C49.5356 123.489 49.8972 123.163 50.3319 122.973L53.18 121.854C53.4996 121.751 53.839 121.728 54.1698 121.784C54.5005 121.841 54.8127 121.977 55.0797 122.18C55.3467 122.384 55.5607 122.649 55.7035 122.952C55.8462 123.256 55.9138 123.59 55.9 123.925L55.9998 127.365C56.0231 127.79 55.9226 128.213 55.7105 128.582C55.4984 128.951 55.184 129.25 54.805 129.444Z" stroke="#0180BE" stroke-width="2" stroke-linecap="round" stroke-linejoin="round"/>
</g>
<path d="M70.6399 109.369L73.9751 113.876L80.7371 106.394" stroke="#0180BE" stroke-width="2" stroke-linecap="round" stroke-linejoin="round"/>
<path d="M75.5709 97.3521C77.1124 97.3519 78.6389 97.6555 80.0631 98.2453C81.4873 98.8351 82.7812 99.6997 83.8712 100.79C84.9612 101.88 85.826 103.174 86.4159 104.598C87.0057 106.022 87.3091 107.549 87.3089 109.09C87.3091 110.632 87.0057 112.158 86.4159 113.582C85.826 115.007 84.9614 116.301 83.8714 117.391C82.7814 118.481 81.4873 119.346 80.0631 119.935C78.6389 120.525 77.1124 120.829 75.5709 120.829C74.0294 120.829 72.5029 120.525 71.0787 119.935C69.6545 119.346 68.3606 118.481 67.2706 117.391C66.1806 116.301 65.316 115.007 64.7262 113.582C64.1363 112.158 63.833 110.632 63.8331 109.09C63.833 107.549 64.1363 106.022 64.7262 104.598C65.316 103.174 66.1806 101.88 67.2706 100.79C68.3606 99.6997 69.6548 98.8351 71.079 98.2453C72.5031 97.6555 74.0294 97.3519 75.5709 97.3521Z" stroke="#0180BE" stroke-width="2"/>
</svg>
