<svg width="229" height="174" viewBox="0 0 229 174" fill="none" xmlns="http://www.w3.org/2000/svg">
<mask id="mask0_1_514" style="mask-type:luminance" maskUnits="userSpaceOnUse" x="0" y="0" width="229" height="174">
<path d="M229 0.708008H0V173.416H229V0.708008Z" fill="white"/>
</mask>
<g mask="url(#mask0_1_514)">
<path opacity="0.72" d="M127.216 13.862C135.954 17.079 144.711 20.529 152.395 25.789C160.079 31.049 166.695 38.331 169.553 47.199C172.277 56.2239 171.376 65.9554 167.042 74.327C162.667 82.6292 155.844 89.3847 147.499 93.677C146.854 94.0687 146.138 94.3268 145.391 94.436C143.171 94.624 141.56 92.445 140.427 90.523C140.016 89.9797 139.81 89.3092 139.844 88.629C140.079 87.275 141.844 87.011 143.149 86.576C144.291 86.1225 145.302 85.3919 146.091 84.4501C146.88 83.5082 147.422 82.3847 147.668 81.181C148.133 78.7641 148.009 76.2705 147.305 73.912C146.597 71.103 145.083 67.997 142.239 67.438C140.98 67.191 139.677 67.512 138.401 67.377C135.774 67.101 133.715 64.971 132.334 62.716C125.402 51.393 131.75 29.989 117.943 23.651C114.804 22.209 108.096 22.008 108.618 17.439C109.59 8.91101 122.65 12.184 127.216 13.862Z" fill="#0180BE"/>
<path d="M135.945 179.437C136.034 178.937 135.017 179.298 135.245 179.757C135.473 180.216 136.116 180.211 136.62 180.137L159.189 176.861C158.646 170.323 158.104 157.14 157.561 150.601C156.84 141.901 156.097 133.101 153.222 124.857C150.752 117.776 146.761 111.271 144.646 104.075C144.358 102.664 143.783 101.327 142.957 100.148C140.928 97.734 137.184 97.989 134.106 98.668C128.664 99.8732 123.391 101.744 118.406 104.238C114.683 105.937 111.333 108.358 108.552 111.361C107.172 112.871 106.116 114.648 105.45 116.582C104.784 118.516 104.521 120.566 104.678 122.605C105.028 124.134 105.2 125.699 105.19 127.268C104.962 128.563 104.502 129.806 103.832 130.938L94.7149 148.686C94.27 149.429 93.9743 150.252 93.844 151.108C93.619 153.76 96.3879 155.563 98.7759 156.733L103.109 151.733C105.106 156.236 108.733 159.816 113.262 161.754C116.902 163.291 120.97 163.692 124.509 165.449C128.048 167.206 131.095 171.122 129.916 174.896C133.245 175.367 132.819 180.687 135.945 179.437Z" fill="#D2F1E7"/>
<path d="M134.296 32.5C134.296 32.5 125.288 14.707 115.805 19.689C115.805 19.689 112.724 21.824 113.672 26.807C113.672 26.807 87.62 42.494 83.029 66.407C82.914 67.0281 83.0287 67.67 83.3515 68.213C83.6743 68.756 84.1835 69.1632 84.7841 69.359C85.5719 69.5849 86.2781 70.0326 86.8185 70.6488C87.359 71.2649 87.7107 72.0234 87.832 72.834C87.8955 73.187 87.8874 73.5492 87.808 73.899C87.7287 74.2487 87.5797 74.579 87.3701 74.87C86.9181 75.4843 86.6658 76.2226 86.6472 76.985C86.6472 78.706 86.4701 79.654 89.2551 81.374C92.0401 83.094 89.6691 85.466 89.6691 85.466C89.6691 85.466 86.9431 88.312 90.0251 89.559C90.0251 89.559 90.7361 89.678 90.4951 90.567C90.4951 90.567 87.5951 96.5569 94.3471 95.1939C97.906 94.3977 101.546 94.0195 105.192 94.067C105.192 94.067 111.771 93.295 112.423 105.454C112.423 105.454 96.48 108.775 103.77 126.207" stroke="#0180BE" stroke-width="2" stroke-linecap="round" stroke-linejoin="round"/>
<path d="M96.7588 67.682C96.7588 67.682 84.859 80.129 97.731 89.429" stroke="#0180BE" stroke-width="2" stroke-linecap="round" stroke-linejoin="round"/>
<path d="M105.67 31.549C105.67 31.549 106.441 23.721 104.307 21.23C102.173 18.739 105.374 12.33 112.723 12.571C120.072 12.812 180.286 18.857 174.951 67.965C174.842 69.3484 174.448 70.6944 173.796 71.9191C173.143 73.1438 172.245 74.2208 171.158 75.083C171.158 75.083 156.223 88.248 148.758 92.757C147.709 93.2125 146.797 93.9331 146.111 94.848C145.425 95.7629 144.989 96.8405 144.846 97.975C144.846 97.975 131.096 97.383 112.725 104.975" stroke="#0180BE" stroke-width="2" stroke-linecap="round" stroke-linejoin="round"/>
<path d="M117.908 26.39C117.908 26.39 124.456 22.06 126.116 37.362C127.776 52.664 125.049 60.018 137.616 68.562" stroke="#0180BE" stroke-width="2" stroke-linecap="round" stroke-linejoin="round"/>
<path d="M133.821 72.828C133.821 72.828 141.465 62.004 146.8 75.319C152.193 88.782 132.755 88.841 132.755 88.841" stroke="#0180BE" stroke-width="2" stroke-linecap="round" stroke-linejoin="round"/>
<path d="M104.899 58.594C106.012 58.594 106.914 57.1071 106.914 55.273C106.914 53.4389 106.012 51.952 104.899 51.952C103.786 51.952 102.884 53.4389 102.884 55.273C102.884 57.1071 103.786 58.594 104.899 58.594Z" stroke="#0180BE" stroke-width="2" stroke-linecap="round" stroke-linejoin="round"/>
<path d="M144.843 97.975C144.843 97.975 148.043 99.517 145.554 104.144" stroke="#0180BE" stroke-width="2" stroke-linecap="round" stroke-linejoin="round"/>
<path d="M161.557 174.681C161.024 124.861 145.557 104.144 145.557 104.144C145.557 104.144 104.308 108.058 92.3959 148.626" stroke="#0180BE" stroke-width="2" stroke-linecap="round" stroke-linejoin="round"/>
<path d="M88.3049 86.96H80.956V79.487H86.032" stroke="#0180BE" stroke-width="2" stroke-linecap="round" stroke-linejoin="round"/>
<path d="M13.4319 77.773C14.4478 77.7722 15.4219 77.368 16.1397 76.6492C16.8576 75.9304 17.2606 74.9559 17.2601 73.94C17.2603 73.3113 17.1367 72.6887 16.8963 72.1077C16.6559 71.5268 16.3034 70.9989 15.8589 70.5541C15.4145 70.1094 14.8868 69.7566 14.306 69.5159C13.7252 69.2751 13.1027 69.1511 12.4739 69.151C11.688 69.1513 10.9099 69.3063 10.1839 69.6074C9.45792 69.9084 8.79848 70.3495 8.24298 70.9055C7.68749 71.4614 7.24677 72.1214 6.94635 72.8476C6.64593 73.5738 6.49161 74.3521 6.49201 75.138C6.49135 76.1203 6.68426 77.0931 7.05963 78.0009C7.43501 78.9087 7.98551 79.7337 8.67975 80.4286C9.37399 81.1236 10.1984 81.675 11.1058 82.0513C12.0131 82.4277 12.9858 82.6216 13.9681 82.622H33.784" stroke="#0180BE" stroke-width="2" stroke-linecap="round" stroke-linejoin="round"/>
<path d="M35.188 72.307C35.1882 71.9807 35.1241 71.6576 34.9993 71.3561C34.8746 71.0547 34.6914 70.7807 34.4608 70.5499C34.2301 70.3192 33.9563 70.1361 33.6548 70.0112C33.3534 69.8863 33.0302 69.822 32.7039 69.822C31.8812 69.8236 31.0927 70.1515 30.5115 70.7338C29.9303 71.3161 29.6041 72.1053 29.6041 72.928C29.6041 73.9571 30.0127 74.9441 30.7403 75.6719C31.4679 76.3997 32.4548 76.8088 33.4839 76.809H40.803" stroke="#0180BE" stroke-width="2" stroke-linecap="round" stroke-linejoin="round"/>
<path d="M25.4001 93.149C26.4159 93.15 27.3896 93.5544 28.1074 94.2731C28.8252 94.9919 29.2283 95.9662 29.228 96.982C29.2283 98.2517 28.7242 99.4695 27.8266 100.368C26.9291 101.266 25.7118 101.77 24.4421 101.771C23.6562 101.771 22.878 101.616 22.1521 101.315C21.4261 101.014 20.7664 100.572 20.2109 100.017C19.6554 99.4606 19.2149 98.8007 18.9145 98.0745C18.6141 97.3482 18.4595 96.5699 18.4599 95.784C18.4595 94.8016 18.6527 93.8287 19.0283 92.9209C19.4039 92.0131 19.9547 91.1882 20.6491 90.4933C21.3435 89.7983 22.1679 89.2469 23.0754 88.8706C23.9829 88.4943 24.9555 88.3004 25.938 88.3H40.051" stroke="#0180BE" stroke-width="2" stroke-linecap="round" stroke-linejoin="round"/>
<path d="M74.1459 105.982V92.697H60.692V104.618C60.692 104.618 65.0429 109.6 74.1459 105.982Z" stroke="#0180BE" stroke-width="2" stroke-linecap="round" stroke-linejoin="round"/>
<path d="M74.5209 102.897C74.5209 102.897 80.655 103.519 80.3 109.214C80.3 109.214 85.0999 119.533 78.3449 126.114C78.3449 126.114 76.033 134.032 91.235 152.091C91.235 152.091 96.6571 157.696 100.035 158.941C100.035 158.941 111.413 124.602 135.595 120.865" stroke="#0180BE" stroke-width="2" stroke-linecap="round" stroke-linejoin="round"/>
<path d="M60.446 100.318C60.446 100.318 54.3459 101.163 55.4059 111.212C55.4059 111.212 53.46 121.166 56.29 126.518C56.29 126.518 65.7519 163.898 77.1589 175.073" stroke="#0180BE" stroke-width="2" stroke-linecap="round" stroke-linejoin="round"/>
<path d="M147.866 140.441C147.866 140.441 146.271 157.699 139.866 170.154C139.866 170.154 108.397 162.86 102.885 152.005" stroke="#0180BE" stroke-width="2" stroke-linecap="round" stroke-linejoin="round"/>
<path d="M151.244 146.758C149.873 148.332 148.254 149.671 146.452 150.723" stroke="#0180BE" stroke-width="2" stroke-linecap="round" stroke-linejoin="round"/>
<path d="M131.51 168.02L128.843 172.646" stroke="#0180BE" stroke-width="2" stroke-linecap="round" stroke-linejoin="round"/>
<path d="M82.273 72.432H45.693V92.638H82.273V72.432Z" fill="white" stroke="#0180BE" stroke-width="2" stroke-linecap="round" stroke-linejoin="round"/>
</g>
</svg>
