<svg width="229" height="173" viewBox="0 0 229 173" fill="none" xmlns="http://www.w3.org/2000/svg">
<mask id="mask0_1_430" style="mask-type:luminance" maskUnits="userSpaceOnUse" x="0" y="0" width="229" height="173">
<path d="M229 0H0V172.708H229V0Z" fill="white"/>
</mask>
<g mask="url(#mask0_1_430)">
<path opacity="0.72" d="M127.215 12.798C135.953 16.014 144.71 19.464 152.393 24.724C160.076 29.984 166.693 37.267 169.551 46.135C172.276 55.1598 171.376 64.8915 167.041 73.263C162.665 81.5648 155.843 88.3202 147.498 92.613C146.852 93.004 146.136 93.2624 145.389 93.373C143.168 93.561 141.559 91.38 140.427 89.459C140.016 88.9152 139.809 88.2447 139.842 87.564C140.077 86.21 141.842 85.946 143.149 85.512C144.291 85.058 145.303 84.3266 146.091 83.3838C146.88 82.441 147.422 81.3166 147.667 80.112C148.131 77.6953 148.007 75.2022 147.303 72.844C146.594 70.034 145.082 66.927 142.236 66.37C140.978 66.123 139.673 66.442 138.398 66.308C135.771 66.032 133.714 63.908 132.333 61.647C125.4 50.325 131.748 28.92 117.942 22.583C114.803 21.141 108.095 20.942 108.617 16.37C109.59 7.84704 122.648 11.117 127.215 12.798Z" fill="#0180BE"/>
<path d="M137.367 176.468C137.455 175.968 136.439 176.33 136.667 176.788C136.895 177.246 137.538 177.241 138.044 177.168L160.61 173.892C160.068 167.354 158.103 156.074 157.56 149.537C156.839 140.837 156.093 132.037 153.222 123.793C150.752 116.71 146.759 110.207 144.644 103.011C144.357 101.6 143.782 100.262 142.955 99.083C140.927 96.67 137.182 96.924 134.105 97.604C128.661 98.8081 123.386 100.679 118.4 103.173C114.676 104.872 111.327 107.294 108.546 110.297C107.166 111.807 106.111 113.584 105.445 115.518C104.779 117.452 104.516 119.502 104.673 121.541C105.023 123.07 105.194 124.634 105.183 126.203C104.957 127.498 104.497 128.742 103.828 129.873L94.7091 147.621C94.264 148.364 93.9681 149.187 93.838 150.044C93.612 152.694 96.3831 154.498 98.7701 155.667L103.103 150.667C105.101 155.17 108.729 158.75 113.258 160.688C116.897 162.226 120.972 162.609 124.503 164.388C125.639 164.959 131.088 170.061 129.91 173.834C133.246 174.303 134.24 177.718 137.367 176.468Z" fill="#D2F1E7"/>
<path d="M134.295 31.433C134.295 31.433 125.287 13.641 115.81 18.623C115.81 18.623 112.728 20.758 113.677 25.74C113.677 25.74 87.625 41.422 83.034 65.34C82.9185 65.9618 83.033 66.6043 83.356 67.1479C83.6791 67.6916 84.1887 68.0992 84.79 68.295C85.5777 68.5206 86.284 68.9681 86.8243 69.5841C87.3646 70.2001 87.7161 70.9586 87.837 71.769C87.9002 72.122 87.892 72.484 87.8128 72.8337C87.7336 73.1834 87.5851 73.5137 87.3761 73.805C86.9232 74.4189 86.6703 75.1574 86.6519 75.92C86.6519 77.641 86.4741 78.59 89.2591 80.309C92.0441 82.028 89.6739 84.401 89.6739 84.401C89.6739 84.401 86.9481 87.248 90.0301 88.494C90.0301 88.494 90.74 88.613 90.504 89.503C90.504 89.503 87.6041 95.493 94.3521 94.129C97.9109 93.3325 101.551 92.9543 105.197 93.002C105.197 93.002 111.774 92.23 112.427 104.389C112.427 104.389 96.485 107.71 103.775 125.147" stroke="#0180BE" stroke-width="2" stroke-linecap="round" stroke-linejoin="round"/>
<path d="M105.664 30.486C105.664 30.486 106.435 22.657 104.302 20.166C102.169 17.675 105.368 11.266 112.717 11.506C120.066 11.746 180.279 17.793 174.946 66.901C174.837 68.2842 174.443 69.6301 173.791 70.8546C173.138 72.079 172.24 73.1559 171.153 74.018C171.153 74.018 156.219 87.1851 148.753 91.6931C147.704 92.1484 146.792 92.869 146.106 93.7839C145.42 94.6988 144.984 95.7765 144.841 96.911C144.841 96.911 131.091 96.319 112.718 103.911" stroke="#0180BE" stroke-width="2" stroke-linecap="round" stroke-linejoin="round"/>
<path d="M117.908 25.325C117.908 25.325 124.457 20.995 126.116 36.297C127.775 51.599 125.05 58.952 137.616 67.497" stroke="#0180BE" stroke-width="2" stroke-linecap="round" stroke-linejoin="round"/>
<path d="M133.816 71.7641C133.816 71.7641 141.461 60.941 146.795 74.255C152.187 87.718 132.749 87.778 132.749 87.778" stroke="#0180BE" stroke-width="2" stroke-linecap="round" stroke-linejoin="round"/>
<path d="M104.899 57.529C106.012 57.529 106.914 56.0421 106.914 54.208C106.914 52.3739 106.012 50.887 104.899 50.887C103.786 50.887 102.884 52.3739 102.884 54.208C102.884 56.0421 103.786 57.529 104.899 57.529Z" stroke="#0180BE" stroke-width="2" stroke-linecap="round" stroke-linejoin="round"/>
<path d="M144.844 96.91C144.844 96.91 148.044 98.452 145.554 103.079" stroke="#0180BE" stroke-width="2" stroke-linecap="round" stroke-linejoin="round"/>
<path d="M161.556 173.024C161.024 123.204 145.556 103.079 145.556 103.079C145.556 103.079 104.309 106.993 92.3961 147.561" stroke="#0180BE" stroke-width="2" stroke-linecap="round" stroke-linejoin="round"/>
<path d="M88.3051 85.895H80.956V78.422H86.0329" stroke="#0180BE" stroke-width="2" stroke-linecap="round" stroke-linejoin="round"/>
<path d="M31.7469 75.64C31.2439 75.6399 30.7458 75.5407 30.281 75.348C29.8163 75.1554 29.394 74.873 29.0383 74.5172C28.6827 74.1614 28.4007 73.739 28.2083 73.2742C28.0158 72.8093 27.9169 72.3111 27.917 71.808C27.9166 71.1793 28.0401 70.5566 28.2804 69.9756C28.5207 69.3946 28.8729 68.8667 29.3173 68.4219C29.7616 67.9771 30.2892 67.6241 30.87 67.3832C31.4507 67.1424 32.0733 67.0183 32.702 67.018C33.488 67.0183 34.2662 67.1733 34.9922 67.4744C35.7182 67.7754 36.3779 68.2165 36.9335 68.7724C37.489 69.3283 37.9297 69.9882 38.2302 70.7145C38.5308 71.4407 38.6853 72.219 38.6851 73.005C38.6856 74.9889 37.898 76.8918 36.4956 78.2951C35.0932 79.6984 33.1909 80.4872 31.207 80.488H17.095" stroke="#0180BE" stroke-width="2" stroke-linecap="round" stroke-linejoin="round"/>
<path d="M74.1351 104.919V91.632H60.683V103.559C60.683 103.559 65.0431 108.535 74.1351 104.919Z" stroke="#0180BE" stroke-width="2" stroke-linecap="round" stroke-linejoin="round"/>
<path d="M74.526 101.833C74.526 101.833 80.659 102.456 80.303 108.15C80.303 108.15 85.103 118.469 78.347 125.05C78.347 125.05 76.0349 132.968 91.2379 151.028C91.2379 151.028 96.66 156.628 100.038 157.878C100.038 157.878 111.416 123.538 135.601 119.801" stroke="#0180BE" stroke-width="2" stroke-linecap="round" stroke-linejoin="round"/>
<path d="M60.45 99.254C60.45 99.254 54.3501 100.099 55.4111 110.147C55.4111 110.147 53.464 120.101 56.295 125.454C56.295 125.454 65.757 162.833 77.163 174.009" stroke="#0180BE" stroke-width="2" stroke-linecap="round" stroke-linejoin="round"/>
<path d="M147.867 139.376C147.867 139.376 146.267 156.635 139.867 169.09C139.867 169.09 108.399 161.79 102.886 150.941" stroke="#0180BE" stroke-width="2" stroke-linecap="round" stroke-linejoin="round"/>
<path d="M151.245 145.693C149.873 147.266 148.254 148.606 146.452 149.66" stroke="#0180BE" stroke-width="2" stroke-linecap="round" stroke-linejoin="round"/>
<path d="M131.509 166.955L128.842 171.581" stroke="#0180BE" stroke-width="2" stroke-linecap="round" stroke-linejoin="round"/>
<path d="M82.273 71.367H45.693V91.573H82.273V71.367Z" fill="white" stroke="#0180BE" stroke-width="2" stroke-linecap="round" stroke-linejoin="round"/>
<path d="M31.3071 90.465C31.3069 90.7912 31.371 91.1142 31.4957 91.4156C31.6204 91.7171 31.8033 91.991 32.0339 92.2217C32.2644 92.4525 32.5382 92.6356 32.8395 92.7606C33.1409 92.8855 33.4638 92.9499 33.79 92.95C34.1975 92.95 34.601 92.8697 34.9775 92.7136C35.3539 92.5575 35.6959 92.3287 35.9838 92.0403C36.2718 91.7519 36.5 91.4095 36.6555 91.0328C36.811 90.6562 36.8906 90.2526 36.89 89.845C36.8902 89.3353 36.7901 88.8305 36.5953 88.3596C36.4004 87.8886 36.1147 87.4607 35.7543 87.1002C35.394 86.7397 34.9662 86.4537 34.4953 86.2585C34.0244 86.0634 33.5196 85.963 33.0099 85.963H25.692" stroke="#0180BE" stroke-width="2" stroke-linecap="round" stroke-linejoin="round"/>
<path d="M110.727 72.678C110.727 72.678 102.685 73.772 103.32 80.984" stroke="#0180BE" stroke-width="2" stroke-linecap="round" stroke-linejoin="round"/>
</g>
</svg>
