
<svg width="654" height="231" viewBox="0 0 654 231" fill="none" xmlns="http://www.w3.org/2000/svg">
<path d="M423.414 108.653C425.068 78.8765 438.221 50.9064 460.099 30.641C481.978 10.3755 510.871 -0.601321 540.687 0.025405C570.502 0.652131 598.909 12.8334 619.917 34.0003C640.924 55.1673 652.89 83.6654 653.292 113.485C653.693 143.304 642.498 172.114 622.068 193.839C601.638 215.563 573.569 228.505 543.781 229.934C513.993 231.362 484.815 221.167 462.399 201.498C439.983 181.829 426.082 154.223 423.627 124.502L439.144 123.22C441.266 148.918 453.286 172.788 472.668 189.795C492.05 206.802 517.279 215.617 543.035 214.382C568.791 213.146 593.061 201.957 610.726 183.172C628.391 164.388 638.071 139.478 637.724 113.694C637.377 87.911 627.03 63.2701 608.866 44.9681C590.702 26.6661 566.14 16.1335 540.36 15.5916C514.58 15.0497 489.597 24.5408 470.68 42.0634C451.762 59.5859 440.389 83.7703 438.959 109.516L423.414 108.653Z" fill="url(#paint0_linear_38_57)"/>
<path d="M237.811 106.301L245.929 114.419C246.71 115.2 246.71 116.466 245.929 117.247L237.811 125.365" stroke="#0180BE" stroke-opacity="0.1" stroke-width="3" stroke-linecap="round"/>
<path d="M262.343 106.297L270.461 114.415C271.242 115.196 271.242 116.462 270.461 117.243L262.343 125.361" stroke="#0180BE" stroke-opacity="0.2" stroke-width="3" stroke-linecap="round"/>
<path d="M286.875 106.297L294.993 114.415C295.774 115.196 295.774 116.462 294.993 117.243L286.875 125.361" stroke="#0180BE" stroke-opacity="0.3" stroke-width="3" stroke-linecap="round"/>
<path d="M311.407 106.297L319.525 114.415C320.306 115.196 320.306 116.462 319.525 117.243L311.407 125.361" stroke="#0180BE" stroke-opacity="0.4" stroke-width="3" stroke-linecap="round"/>
<path d="M335.939 106.297L344.058 114.415C344.839 115.196 344.839 116.462 344.058 117.243L335.939 125.361" stroke="#0180BE" stroke-opacity="0.5" stroke-width="3" stroke-linecap="round"/>
<path d="M360.472 106.297L368.59 114.415C369.371 115.196 369.371 116.462 368.59 117.243L360.472 125.361" stroke="#0180BE" stroke-opacity="0.7" stroke-width="3" stroke-linecap="round"/>
<path d="M385.004 106.297L393.122 114.415C393.903 115.196 393.903 116.462 393.122 117.243L385.004 125.361" stroke="#0180BE" stroke-opacity="0.85" stroke-width="3" stroke-linecap="round"/>
<path d="M409.536 106.297L417.654 114.415C418.435 115.196 418.435 116.462 417.654 117.243L409.536 125.361" stroke="#0180BE" stroke-width="3" stroke-linecap="round"/>
<circle cx="115.73" cy="115.033" r="99.5" fill="white"/>
<path d="M143.848 29.2859L120.848 24.0078C119.595 23.7203 118.4 24.672 118.4 25.9571V160.306C118.4 160.937 118.699 161.531 119.205 161.909L142.205 179.063C143.524 180.047 145.4 179.105 145.4 177.46V31.2353C145.4 30.303 144.756 29.4944 143.848 29.2859Z" fill="#C5F1FF"/>
<path d="M119.096 15.2968V141.691C119.096 143.33 118.895 144.963 118.496 146.553L118.146 147.949C117.748 149.539 117.546 151.172 117.546 152.811V154.981V158.073V162.711V162.711C117.546 165.613 118.977 168.33 121.371 169.972L141.908 184.057C142.196 184.255 142.466 184.479 142.714 184.726V184.726C144.363 186.371 146.843 186.854 148.99 185.948L185.088 170.712C185.514 170.533 185.9 170.273 186.228 169.946V169.946C186.903 169.273 187.282 168.359 187.282 167.405V165.803V44.7968" stroke="#0083C3" stroke-width="2.5"/>
<path d="M146.4 178.446L146.4 19.7968" stroke="#0083C3" stroke-width="2.5" stroke-linecap="round"/>
<path d="M230.586 108.653C228.932 78.8765 215.779 50.9064 193.901 30.641C172.022 10.3755 143.129 -0.601321 113.313 0.025405C83.4976 0.652131 55.0908 12.8334 34.0832 34.0003C13.0757 55.1673 1.10951 83.6654 0.708171 113.485C0.306835 143.304 11.5017 172.114 31.932 193.839C52.3623 215.563 80.431 228.505 110.219 229.934C140.007 231.362 169.185 221.167 191.601 201.498C214.017 181.829 227.918 154.223 230.373 124.502L214.856 123.22C212.734 148.918 200.714 172.788 181.332 189.795C161.95 206.802 136.721 215.617 110.965 214.382C85.2088 213.146 60.9391 201.957 43.2741 183.172C25.6091 164.388 15.9294 139.478 16.2764 113.694C16.6234 87.911 26.97 63.2701 45.1342 44.9681C63.2984 26.6661 87.8603 16.1335 113.64 15.5916C139.42 15.0497 164.403 24.5408 183.32 42.0634C202.238 59.5859 213.611 83.7703 215.041 109.516L230.586 108.653Z" fill="url(#paint1_linear_38_57)"/>
<path d="M157.4 92.96V76.2218C157.4 75.2823 158.054 74.4694 158.972 74.2682L173.972 70.9787C175.22 70.7051 176.4 71.6551 176.4 72.9323V89.6706C176.4 90.6101 175.746 91.4229 174.829 91.6241L159.829 94.9136C158.581 95.1872 157.4 94.2372 157.4 92.96Z" stroke="#0083C3" stroke-width="2.5"/>
<path d="M157.4 124.96V108.222C157.4 107.282 158.054 106.469 158.972 106.268L173.972 102.979C175.22 102.705 176.4 103.655 176.4 104.932V121.671C176.4 122.61 175.746 123.423 174.829 123.624L159.829 126.914C158.581 127.187 157.4 126.237 157.4 124.96Z" stroke="#0083C3" stroke-width="2.5"/>
<line x1="95.4067" y1="126.999" x2="103.084" y2="119.322" stroke="#0083C3" stroke-width="2"/>
<line x1="94.2052" y1="143.41" x2="101.882" y2="151.087" stroke="#0083C3" stroke-width="2"/>
<line x1="98.3623" y1="135.197" x2="109.219" y2="135.197" stroke="#0083C3" stroke-width="2"/>
<line x1="86.4004" y1="145.446" x2="86.4004" y2="156.446" stroke="#0083C3" stroke-width="2"/>
<path d="M58.1416 131.756C61.0483 131.756 65.5847 131.756 65.5847 131.756M68.0318 138.578L75.9847 138.578M75.9847 138.578L88.6169 138.578C89.0959 138.578 89.5706 138.489 90.0167 138.314L90.0524 138.301C90.5906 138.09 91.072 137.757 91.4577 137.327L91.726 137.028C92.1602 136.543 92.4004 135.916 92.4004 135.266V135.266C92.4004 134.402 91.9784 133.594 91.2703 133.1L90.4908 132.557C89.7427 132.036 88.8528 131.756 87.9409 131.756L65.5847 131.756M75.9847 138.578L77.0119 141.485C77.2009 142.02 77.1418 142.612 76.8506 143.099V143.099C76.7498 143.267 76.6234 143.419 76.4761 143.549L75.8568 144.096C75.2165 144.661 74.3918 144.973 73.5377 144.973V144.973M65.5847 144.973L73.5377 144.973M73.5377 144.973L74.3044 146.305C74.6705 146.941 74.8632 147.662 74.8632 148.396L74.8632 148.598C74.8632 149.075 74.759 149.546 74.5579 149.979V149.979C74.2913 150.552 73.8611 151.038 73.3255 151.374V151.374C72.8 151.703 72.189 151.88 71.5687 151.88L70.173 151.88M63.8514 151.88L70.173 151.88M70.173 151.88L71.0544 153.662C71.2794 154.117 71.3965 154.617 71.3965 155.125L71.3965 155.18C71.3965 155.808 71.2069 156.421 70.8525 156.94V156.94C70.4152 157.58 69.7553 158.034 69.0014 158.214L68.5324 158.327C68.1998 158.406 67.859 158.446 67.517 158.446L54.8034 158.446C52.2298 158.446 49.6831 157.921 47.3192 156.904L45.4459 156.097C44.4703 155.677 43.5838 155.075 42.8341 154.323V154.323C41.2755 152.759 40.4004 150.64 40.4004 148.432L40.4004 138.12C40.4004 137.348 40.4951 136.579 40.6825 135.831V135.831C41.0983 134.169 41.9589 132.652 43.1717 131.443L43.2143 131.4C43.7159 130.9 44.2711 130.457 44.8699 130.078L45.9499 129.395C47.4108 128.471 48.9791 127.73 50.62 127.186L53.0435 126.384L57.3158 125.598C57.8652 125.497 58.4226 125.446 58.9812 125.446L59.8555 125.446C60.6072 125.446 61.3501 125.609 62.0331 125.923L62.0719 125.941C62.7074 126.233 63.2746 126.655 63.737 127.18V127.18C64.2154 127.723 64.5705 128.363 64.7778 129.057L65.5847 131.756" stroke="#0083C3" stroke-width="2"/>
<line x1="86.4004" y1="123.446" x2="86.4004" y2="112.446" stroke="#0083C3" stroke-width="2"/>
<circle cx="537.9" cy="114.797" r="99.5" fill="url(#paint2_linear_38_57)"/>
<path d="M541.552 33.6343L590.552 33.6343" stroke="#F9F8F8" stroke-width="5" stroke-linecap="round"/>
<path d="M485.552 33.6343L524.552 33.6343" stroke="#F9F8F8" stroke-width="5" stroke-linecap="round"/>
<path d="M468.552 51.6343L518.552 51.6343" stroke="#F9F8F8" stroke-width="5" stroke-linecap="round"/>
<path d="M455.552 69.6343L515.552 69.6343" stroke="#F9F8F8" stroke-width="5" stroke-linecap="round"/>
<path d="M458.552 159.634L507.552 159.634" stroke="#F9F8F8" stroke-width="5" stroke-linecap="round"/>
<path d="M475.552 177.634L524.552 177.634" stroke="#F9F8F8" stroke-width="5" stroke-linecap="round"/>
<path d="M490.552 195.634L507.552 195.634" stroke="#F9F8F8" stroke-width="5" stroke-linecap="round"/>
<path d="M521.552 195.634L586.552 195.634" stroke="#F9F8F8" stroke-width="5" stroke-linecap="round"/>
<path d="M538.552 177.634L609.552 177.634" stroke="#F9F8F8" stroke-width="5" stroke-linecap="round"/>
<path d="M524.552 159.634L600.552 159.634" stroke="#F9F8F8" stroke-width="5" stroke-linecap="round"/>
<path d="M609.552 159.634L617.552 159.634" stroke="#F9F8F8" stroke-width="5" stroke-linecap="round"/>
<path d="M448.552 87.6343L482.552 87.6343" stroke="#F9F8F8" stroke-width="5" stroke-linecap="round"/>
<path d="M532.552 51.6343L560.552 51.6343" stroke="#F9F8F8" stroke-width="5" stroke-linecap="round"/>
<path d="M532.552 69.6343L566.552 69.6343" stroke="#F9F8F8" stroke-width="5" stroke-linecap="round"/>
<path d="M495.552 87.6343L515.552 87.6343" stroke="#F9F8F8" stroke-width="5" stroke-linecap="round"/>
<path d="M572.552 51.6343L607.552 51.6343" stroke="#F9F8F8" stroke-width="5" stroke-linecap="round"/>
<path d="M580.552 69.6343L622.552 69.6343" stroke="#F9F8F8" stroke-width="5" stroke-linecap="round"/>
<path d="M527.552 87.6343L628.552 87.6343" stroke="#F9F8F8" stroke-width="5" stroke-linecap="round"/>
<path d="M455.552 97.6343H468.552" stroke="#044468" stroke-width="5" stroke-linecap="round"/>
<path d="M622.552 147.634L609.552 147.634" stroke="#044468" stroke-width="5" stroke-linecap="round"/>
<path d="M622.552 97.6343L609.552 97.6343" stroke="#044468" stroke-width="5" stroke-linecap="round"/>
<path d="M455.552 147.634L468.552 147.634" stroke="#044468" stroke-width="5" stroke-linecap="round"/>
<path d="M455.552 97.6343L455.552 110.634" stroke="#044468" stroke-width="5" stroke-linecap="round"/>
<path d="M622.552 147.634L622.552 134.634" stroke="#044468" stroke-width="5" stroke-linecap="round"/>
<path d="M622.552 97.6343L622.552 110.634" stroke="#044468" stroke-width="5" stroke-linecap="round"/>
<path d="M455.552 147.634L455.552 134.634" stroke="#044468" stroke-width="5" stroke-linecap="round"/>
<path d="M523.326 107.119H524.964V119.157H523.326V107.119ZM519.361 111.227H521.35V112.631H519.361V111.227ZM520.895 107.314H522.507V118.611H520.895V107.314ZM516.761 109.082H518.061V110.317C518.061 113.021 517.32 115.712 515.409 116.908L514.382 115.634C516.15 114.529 516.761 112.371 516.761 110.317V109.082ZM517.151 109.082H518.438V110.317C518.438 112.319 519.036 114.347 520.778 115.361L519.764 116.622C517.853 115.491 517.151 112.969 517.151 110.317V109.082ZM514.837 108.328H520.206V109.719H514.837V108.328ZM526.601 116.362H537.495V117.766H526.601V116.362ZM531.177 113.697H532.906V116.752H531.177V113.697ZM531.125 108.692H532.581V109.121C532.581 111.656 530.761 113.671 527.693 114.23L527.017 112.865C529.695 112.449 531.125 110.785 531.125 109.121V108.692ZM531.476 108.692H532.932V109.121C532.932 110.785 534.362 112.397 537.105 112.8L536.442 114.165C533.322 113.619 531.476 111.656 531.476 109.121V108.692ZM527.498 108.029H536.559V109.407H527.498V108.029ZM547.187 110.317H550.281V111.695H547.187V110.317ZM549.839 107.132H551.568V116.011H549.839V107.132ZM543.599 117.571H551.828V118.949H543.599V117.571ZM543.599 115.14H545.341V118.364H543.599V115.14ZM542 107.912H543.716V109.745H546.004V107.912H547.694V114.126H542V107.912ZM543.716 111.058V112.761H546.004V111.058H543.716ZM553.92 108.614H563.852V109.992H553.92V108.614ZM553.465 116.557H564.359V117.948H553.465V116.557ZM558.028 114.971H559.744V117.103H558.028V114.971ZM558.873 110.512C561.382 110.512 562.955 111.383 562.955 112.865C562.955 114.347 561.382 115.218 558.873 115.218C556.364 115.218 554.791 114.347 554.791 112.865C554.791 111.383 556.364 110.512 558.873 110.512ZM558.873 111.851C557.365 111.851 556.559 112.176 556.559 112.865C556.559 113.554 557.365 113.866 558.873 113.866C560.381 113.866 561.187 113.554 561.187 112.865C561.187 112.176 560.381 111.851 558.873 111.851ZM558.028 107.249H559.744V109.472H558.028V107.249ZM491.551 139.626C490.316 137.624 489.601 135.505 489.601 132.905C489.601 130.318 490.316 128.186 491.551 126.184L492.734 126.691C491.642 128.589 491.148 130.786 491.148 132.905C491.148 135.037 491.642 137.234 492.734 139.132L491.551 139.626ZM497.478 137.182C496.178 137.182 494.904 136.688 493.968 135.791L495.073 134.465C495.749 135.102 496.672 135.518 497.517 135.518C498.518 135.518 499.038 135.089 499.038 134.426C499.038 133.711 498.453 133.477 497.595 133.113L496.308 132.567C495.346 132.177 494.358 131.384 494.358 129.993C494.358 128.42 495.749 127.211 497.686 127.211C498.804 127.211 499.922 127.653 500.702 128.446L499.74 129.655C499.116 129.148 498.479 128.862 497.686 128.862C496.841 128.862 496.308 129.239 496.308 129.863C496.308 130.552 496.997 130.812 497.816 131.137L499.077 131.657C500.234 132.138 501.001 132.892 501.001 134.27C501.001 135.843 499.688 137.182 497.478 137.182ZM505.734 137.182C503.693 137.182 502.107 135.778 502.107 133.373C502.107 131.007 503.771 129.551 505.487 129.551C507.502 129.551 508.529 131.007 508.529 133.022C508.529 133.386 508.49 133.724 508.451 133.906H503.953C504.122 135.102 504.902 135.713 505.981 135.713C506.566 135.713 507.086 135.531 507.619 135.206L508.256 136.389C507.541 136.883 506.631 137.182 505.734 137.182ZM503.927 132.632H506.904C506.904 131.644 506.462 131.02 505.526 131.02C504.759 131.02 504.083 131.566 503.927 132.632ZM510.115 137V129.733H511.662L511.818 131.02H511.857C512.377 130.058 513.17 129.551 513.924 129.551C514.314 129.551 514.548 129.603 514.769 129.707L514.444 131.345C514.184 131.28 513.989 131.228 513.677 131.228C513.118 131.228 512.429 131.618 512.026 132.671V137H510.115ZM515.79 137V129.733H517.701V137H515.79ZM516.739 128.55C516.076 128.55 515.634 128.134 515.634 127.497C515.634 126.873 516.076 126.47 516.739 126.47C517.402 126.47 517.857 126.873 517.857 127.497C517.857 128.134 517.402 128.55 516.739 128.55ZM521.519 137.182C520.219 137.182 519.374 136.272 519.374 135.024C519.374 133.477 520.635 132.658 523.56 132.333C523.521 131.618 523.222 131.085 522.325 131.085C521.649 131.085 520.986 131.371 520.323 131.774L519.634 130.5C520.492 129.98 521.519 129.551 522.676 129.551C524.522 129.551 525.471 130.643 525.471 132.762V137H523.911L523.768 136.233H523.716C523.079 136.779 522.351 137.182 521.519 137.182ZM522.143 135.687C522.689 135.687 523.092 135.44 523.56 134.985V133.516C521.779 133.737 521.194 134.218 521.194 134.881C521.194 135.44 521.584 135.687 522.143 135.687ZM529.213 137.182C527.874 137.182 527.419 136.311 527.419 134.959V126.639H529.33V135.037C529.33 135.492 529.525 135.635 529.707 135.635C529.772 135.635 529.824 135.635 529.954 135.609L530.188 137.026C529.967 137.104 529.668 137.182 529.213 137.182ZM534.621 137V127.38H536.571L539.366 132.515L540.341 134.595H540.406C540.302 133.594 540.146 132.307 540.146 131.215V127.38H541.979V137H540.016L537.234 131.852L536.259 129.798H536.194C536.285 130.825 536.441 132.034 536.441 133.152V137H534.621ZM546.373 137.182C544.8 137.182 544.111 136.103 544.111 134.27V129.733H546.022V134.036C546.022 135.154 546.334 135.544 547.049 135.544C547.647 135.544 548.037 135.284 548.531 134.634V129.733H550.429V137H548.869L548.726 135.96H548.687C548.05 136.701 547.361 137.182 546.373 137.182ZM552.48 137V129.733H554.027L554.183 130.695H554.222C554.833 130.071 555.509 129.551 556.445 129.551C557.498 129.551 558.109 130.006 558.447 130.812C559.123 130.123 559.825 129.551 560.774 129.551C562.321 129.551 563.023 130.643 563.023 132.463V137H561.112V132.71C561.112 131.566 560.8 131.189 560.098 131.189C559.682 131.189 559.227 131.449 558.707 131.995V137H556.796V132.71C556.796 131.566 556.471 131.189 555.769 131.189C555.366 131.189 554.885 131.449 554.391 131.995V137H552.48ZM568.65 137.182C568 137.182 567.298 136.844 566.713 136.233H566.661L566.505 137H565.01V126.639H566.921V129.252L566.856 130.409C567.441 129.902 568.156 129.551 568.884 129.551C570.665 129.551 571.744 131.007 571.744 133.243C571.744 135.752 570.249 137.182 568.65 137.182ZM568.234 135.609C569.105 135.609 569.781 134.855 569.781 133.282C569.781 131.878 569.352 131.111 568.338 131.111C567.857 131.111 567.402 131.358 566.921 131.865V135.076C567.363 135.479 567.844 135.609 568.234 135.609ZM576.548 137.182C574.507 137.182 572.921 135.778 572.921 133.373C572.921 131.007 574.585 129.551 576.301 129.551C578.316 129.551 579.343 131.007 579.343 133.022C579.343 133.386 579.304 133.724 579.265 133.906H574.767C574.936 135.102 575.716 135.713 576.795 135.713C577.38 135.713 577.9 135.531 578.433 135.206L579.07 136.389C578.355 136.883 577.445 137.182 576.548 137.182ZM574.741 132.632H577.718C577.718 131.644 577.276 131.02 576.34 131.02C575.573 131.02 574.897 131.566 574.741 132.632ZM580.93 137V129.733H582.477L582.633 131.02H582.672C583.192 130.058 583.985 129.551 584.739 129.551C585.129 129.551 585.363 129.603 585.584 129.707L585.259 131.345C584.999 131.28 584.804 131.228 584.492 131.228C583.933 131.228 583.244 131.618 582.841 132.671V137H580.93ZM587.437 139.626L586.241 139.132C587.333 137.234 587.84 135.037 587.84 132.905C587.84 130.786 587.333 128.589 586.241 126.691L587.437 126.184C588.659 128.186 589.374 130.318 589.374 132.905C589.374 135.505 588.659 137.624 587.437 139.626Z" fill="#044468"/>
<path d="M583.756 98.1549L580.156 103.655C579.564 104.561 580.631 105.631 581.538 105.041L587.073 101.441C587.402 101.227 587.825 101.225 588.156 101.437L589.109 102.045C589.151 102.072 589.194 102.096 589.24 102.116L590.35 102.611C590.415 102.64 590.482 102.662 590.551 102.677L593.037 103.202C593.105 103.216 593.174 103.224 593.244 103.224H597.095C597.197 103.224 597.298 103.208 597.395 103.178L599.439 102.537C599.49 102.52 599.54 102.5 599.588 102.476L601.713 101.409C601.76 101.386 601.804 101.359 601.847 101.328L603.7 99.9996C603.744 99.9675 603.786 99.9317 603.825 99.8927L605.25 98.4624C605.3 98.4118 605.345 98.356 605.383 98.2959L606.556 96.4645C606.586 96.4179 606.612 96.3688 606.634 96.3179L607.451 94.4026L608.119 92.1215C608.146 92.0302 608.16 91.9356 608.16 91.8404V89.4839C608.16 89.176 608.301 88.8853 608.544 88.6958L609.435 88.0001L610.64 86.7897C610.687 86.7431 610.728 86.692 610.765 86.6372L611.776 85.1146C611.821 85.0467 611.858 84.9735 611.885 84.8966L612.494 83.183C612.533 83.0754 612.552 82.9621 612.552 82.8479V80.8427C612.552 80.7771 612.546 80.7116 612.533 80.6473L612.151 78.7274C612.135 78.6493 612.11 78.5734 612.077 78.5013L611.19 76.5932C611.154 76.5152 611.107 76.4422 611.053 76.3761L609.805 74.8732C609.747 74.8037 609.681 74.7423 609.606 74.6907L607.969 73.5526C607.907 73.5096 607.841 73.4738 607.771 73.4457L605.93 72.7063C605.812 72.6587 605.685 72.6343 605.557 72.6343H603.483L601.545 72.764C601.421 72.7723 601.3 72.8036 601.188 72.8563L599.35 73.7173C599.272 73.7539 599.199 73.8005 599.133 73.8559L597.617 75.1243C597.56 75.1714 597.509 75.2247 597.465 75.2831L596.415 76.653C596.226 76.9 595.933 77.0448 595.621 77.0448H593.527C593.458 77.0448 593.388 77.0521 593.32 77.0665L590.821 77.5949C590.761 77.6076 590.702 77.6257 590.645 77.6491L588.444 78.5594C588.363 78.5929 588.286 78.6369 588.217 78.6904L585.994 80.3972C585.94 80.4386 585.89 80.4854 585.846 80.5369L584.153 82.4985C584.098 82.5617 584.052 82.6314 584.014 82.7061L582.702 85.3412C582.67 85.4063 582.645 85.4748 582.627 85.5453L581.838 88.7125C581.815 88.8062 581.805 88.9028 581.81 88.9993L581.94 91.8843C581.943 91.9505 581.953 92.0163 581.969 92.0806L582.627 94.7232C582.645 94.7938 582.67 94.8622 582.702 94.9274L583.815 97.1615C583.973 97.4795 583.951 97.8576 583.756 98.1549Z" fill="#0083C3"/>
<path d="M595.033 82.9305L595.009 82.8345C594.992 82.7658 594.983 82.6952 594.983 82.6244C594.983 82.1016 594.52 81.6998 594.003 81.7732L593.048 81.9085L592.371 82.0915C591.811 82.2432 591.27 82.4593 590.759 82.7356C590.26 83.0059 589.792 83.332 589.366 83.7076L589.295 83.7704C588.941 84.0823 588.615 84.4237 588.319 84.7908L588.199 84.9396C587.84 85.3849 587.537 85.8731 587.299 86.3931C587.078 86.8749 586.914 87.3805 586.809 87.8999L586.744 88.223C586.617 88.8558 586.552 89.4998 586.552 90.1454V90.795C586.552 91.5377 586.673 92.2756 586.91 92.9797C587.04 93.3669 587.204 93.7418 587.401 94.0997L587.423 94.139C587.762 94.7563 588.188 95.3217 588.688 95.8178L588.871 95.9985C589.259 96.3839 589.682 96.7337 590.133 97.0435L590.41 97.234C590.969 97.6175 591.575 97.9263 592.213 98.1524C592.859 98.3813 593.533 98.5236 594.216 98.5757L594.343 98.5854C594.769 98.618 595.197 98.6191 595.624 98.5889L595.782 98.5776C596.535 98.5243 597.277 98.3604 597.982 98.0914C598.469 97.9054 598.936 97.6704 599.376 97.3899L599.54 97.2855C600.276 96.8159 600.945 96.2481 601.528 95.5977L601.755 95.344L601.784 95.3066C602.315 94.6034 602.752 93.833 603.081 93.0154L603.138 92.8762L603.509 91.5239C603.538 91.4205 603.552 91.3138 603.552 91.2066C603.552 90.5963 603.093 90.0837 602.486 90.0168L602.414 90.0089C602.344 90.0011 602.274 89.9875 602.206 89.9681L602.188 89.9629C601.664 89.8147 601.102 89.9598 600.716 90.3427L597.764 93.2706C597.569 93.464 597.353 93.6348 597.12 93.7795C596.624 94.0868 596.062 94.2703 595.48 94.3147L595.24 94.3331C594.795 94.367 594.348 94.3296 593.915 94.2223C593.255 94.0586 592.639 93.7312 592.132 93.2782C591.736 92.9246 591.405 92.4957 591.166 92.0215L591.1 91.8897C590.836 91.3665 590.699 90.7887 590.699 90.2028C590.699 89.6169 590.836 89.0392 591.1 88.5159L591.203 88.3116C591.418 87.8841 591.698 87.4919 592.031 87.1486L594.615 84.4913C595.015 84.0789 595.174 83.4882 595.033 82.9305Z" fill="white"/>
<path d="M601.337 77.3951L601.281 77.4361C600.918 77.6997 600.601 78.0217 600.343 78.3888C600.112 78.7173 599.931 79.0782 599.806 79.4597L599.781 79.5355C599.63 79.9984 599.552 80.4825 599.552 80.9696V81.1116C599.552 81.8187 599.701 82.518 599.99 83.1636L600.057 83.3124C600.211 83.6585 600.416 83.9802 600.663 84.2676C601.096 84.7704 601.655 85.1572 602.278 85.3873C602.717 85.5496 603.185 85.6343 603.653 85.6343H603.962C604.267 85.6343 604.572 85.6036 604.871 85.5428L604.913 85.5342C605.56 85.4026 606.169 85.1263 606.694 84.7258C606.949 84.532 607.181 84.311 607.387 84.0667L607.573 83.846C607.831 83.5398 608.044 83.1963 608.205 82.8293C608.433 82.3065 608.552 81.7397 608.552 81.1692C608.552 80.6505 608.455 80.1365 608.265 79.6539L608.147 79.3551C608.024 79.0423 607.862 78.742 607.669 78.4669C607.377 78.052 607.009 77.6885 606.589 77.404C606.132 77.0939 605.618 76.8776 605.076 76.7675L604.915 76.7347C604.586 76.6679 604.252 76.6343 603.917 76.6343H603.68C603.194 76.6343 602.713 76.7229 602.26 76.8958C601.932 77.0209 601.621 77.1888 601.337 77.3951Z" fill="white"/>
<defs>
<linearGradient id="paint0_linear_38_57" x1="423.4" y1="115.297" x2="653.4" y2="115.297" gradientUnits="userSpaceOnUse">
<stop stop-color="#0083C3"/>
<stop offset="1" stop-color="#E9F3F9"/>
</linearGradient>
<linearGradient id="paint1_linear_38_57" x1="0.400511" y1="108.797" x2="232.901" y2="113.297" gradientUnits="userSpaceOnUse">
<stop stop-color="#0180BE"/>
<stop offset="1" stop-color="#E6F2F8"/>
</linearGradient>
<linearGradient id="paint2_linear_38_57" x1="438.552" y1="114.634" x2="637.552" y2="114.634" gradientUnits="userSpaceOnUse">
<stop stop-color="#B4B4B4"/>
<stop offset="1" stop-color="white"/>
</linearGradient>
</defs>
</svg>
