<svg xmlns="http://www.w3.org/2000/svg" xmlns:xlink="http://www.w3.org/1999/xlink" width="129" height="130" viewBox="0 0 129 130">
  <defs>
    <linearGradient id="linear-gradient" x1="0.053" y1="0.5" x2="0.959" y2="0.5" gradientUnits="objectBoundingBox">
      <stop offset="0" stop-color="#bbf0de"/>
      <stop offset="1" stop-color="#0180be"/>
    </linearGradient>
  </defs>
  <g id="그룹_152" data-name="그룹 152" transform="translate(-125 -328)">
    <g id="그룹_66" data-name="그룹 66" transform="translate(145 342.545)">
      <path id="패스_2" data-name="패스 2" d="M961.544,1360.033c-9.261,0-16.8-8.761-16.8-19.53l-.064-40.567c0-6.3-3.893-11.42-8.679-11.42s-8.678,5.12-8.678,11.414c0,.013,0,.026,0,.04l-.064,6.472c-.009,10.76-7.54,19.51-16.8,19.51h-2.857a4.058,4.058,0,1,1,0-8.116h2.857c4.785,0,8.679-5.12,8.679-11.414,0-.013,0-.026,0-.04l.064-6.472c.009-10.76,7.54-19.51,16.795-19.51s16.8,8.761,16.8,19.53l.064,40.566c0,6.3,3.893,11.42,8.679,11.42s8.679-5.12,8.679-11.413v-.026l.042-6.776c.007-10.762,7.538-19.517,16.8-19.517h2.2a4.058,4.058,0,0,1,0,8.116h-2.2c-4.785,0-8.679,5.12-8.679,11.413v.026l-.042,6.776C978.332,1351.278,970.8,1360.033,961.544,1360.033Z" transform="translate(-903.553 -1280.4)" fill="url(#linear-gradient)"/>
    </g>
    <g id="The_SpiroKit" data-name="The SpiroKit" transform="translate(-1004.634 -493.411)" style="isolation: isolate">
      <g id="그룹_151" data-name="그룹 151" style="isolation: isolate">
        <path id="패스_524" data-name="패스 524" d="M1155.614,934.961a1.176,1.176,0,0,1-.8.3,1.13,1.13,0,0,1-.8-.3,1.072,1.072,0,0,1-.323-.825v-8.355h-2.04a1.027,1.027,0,0,1-.75-.263.912.912,0,0,1-.27-.682.957.957,0,0,1,.27-.705,1.013,1.013,0,0,1,.75-.27h6.45a1.014,1.014,0,0,1,.75.27.953.953,0,0,1,.27.705.908.908,0,0,1-.27.682,1.027,1.027,0,0,1-.75.263h-2.145v8.355A1.036,1.036,0,0,1,1155.614,934.961Z" fill="#5dbcce"/>
        <path id="패스_525" data-name="패스 525" d="M1162.379,927.791a2.553,2.553,0,0,1,.532-.48,2.943,2.943,0,0,1,1.178-.465,3.207,3.207,0,0,1,.495-.045,3.784,3.784,0,0,1,1.38.233,2.985,2.985,0,0,1,1.02.644,2.725,2.725,0,0,1,.637.976,3.3,3.3,0,0,1,.218,1.207v4.275a1.036,1.036,0,0,1-.345.825,1.176,1.176,0,0,1-.8.3,1.082,1.082,0,0,1-.788-.3,1.1,1.1,0,0,1-.307-.825v-4.29a1.346,1.346,0,0,0-.3-.915,1.092,1.092,0,0,0-.87-.345,1.628,1.628,0,0,0-.615.127,2.563,2.563,0,0,0-.592.338,3,3,0,0,0-.5.48,2.207,2.207,0,0,0-.345.555v4.05a1.036,1.036,0,0,1-.345.825,1.176,1.176,0,0,1-.8.3,1.082,1.082,0,0,1-.788-.3,1.1,1.1,0,0,1-.307-.825v-9.585a1.125,1.125,0,0,1,.307-.833,1.067,1.067,0,0,1,.788-.307,1.159,1.159,0,0,1,.8.307,1.06,1.06,0,0,1,.345.833Z" fill="#5dbcce"/>
        <path id="패스_526" data-name="패스 526" d="M1171.3,931.931a1.782,1.782,0,0,0,.645,1.32,2.22,2.22,0,0,0,1.335.39,4.232,4.232,0,0,0,1.74-.45c.07-.03.163-.067.278-.112a1.112,1.112,0,0,1,.367-.076.779.779,0,0,1,.383.09.73.73,0,0,1,.307.383.883.883,0,0,1,.075.51.83.83,0,0,1-.18.383,1.4,1.4,0,0,1-.3.262q-.165.105-.27.165a4.954,4.954,0,0,1-1.238.488,5.654,5.654,0,0,1-1.282.142,4.974,4.974,0,0,1-1.583-.248,3.493,3.493,0,0,1-2.189-2.069,4.961,4.961,0,0,1-.323-1.883,5.712,5.712,0,0,1,.262-1.77,4.1,4.1,0,0,1,.766-1.4,3.562,3.562,0,0,1,1.222-.929,3.808,3.808,0,0,1,1.635-.338,3.989,3.989,0,0,1,1.56.278,3.2,3.2,0,0,1,1.11.757,3.447,3.447,0,0,1,.7,1.155,6.077,6.077,0,0,1,.345,1.455,2.21,2.21,0,0,1-.008.66.923.923,0,0,1-.225.473,1.028,1.028,0,0,1-.479.277,2.938,2.938,0,0,1-.8.09Zm1.65-3.36a1.464,1.464,0,0,0-1.17.51,1.682,1.682,0,0,0-.3.495,2.72,2.72,0,0,0-.15.54h3.135a2.5,2.5,0,0,0-.157-.525,2.086,2.086,0,0,0-.293-.495,1.537,1.537,0,0,0-.443-.375A1.243,1.243,0,0,0,1172.954,928.571Z" fill="#5dbcce"/>
        <path id="패스_527" data-name="패스 527" d="M1181.8,933.266a.774.774,0,0,1,.383-.4.965.965,0,0,1,.471-.076,1.421,1.421,0,0,1,.444.113c.134.06.237.11.306.15a4.69,4.69,0,0,0,.9.375,3.094,3.094,0,0,0,.855.12,2.114,2.114,0,0,0,1.313-.383,1.284,1.284,0,0,0,.5-1.087,1.129,1.129,0,0,0-.51-.983,6.982,6.982,0,0,0-1.4-.7,10.924,10.924,0,0,1-1.319-.622,5.1,5.1,0,0,1-1.043-.766,3.071,3.071,0,0,1-.683-.967,2.962,2.962,0,0,1-.239-1.215,2.886,2.886,0,0,1,.292-1.335,2.7,2.7,0,0,1,.811-.953,3.674,3.674,0,0,1,1.244-.577,6.222,6.222,0,0,1,1.613-.2,4.605,4.605,0,0,1,1.29.187,6.925,6.925,0,0,1,1.23.488,1.428,1.428,0,0,1,.27.187,1.288,1.288,0,0,1,.262.308.86.86,0,0,1,.128.405.846.846,0,0,1-.135.48.922.922,0,0,1-.4.4.9.9,0,0,1-.458.075,1.412,1.412,0,0,1-.427-.1,3.058,3.058,0,0,1-.3-.143,3.2,3.2,0,0,0-1.485-.42,2.012,2.012,0,0,0-1.276.33,1.054,1.054,0,0,0-.4.855,1.141,1.141,0,0,0,.149.585,1.584,1.584,0,0,0,.436.465,3.937,3.937,0,0,0,.667.39q.383.18.862.36a8.953,8.953,0,0,1,1.276.6,4.384,4.384,0,0,1,.974.75,2.984,2.984,0,0,1,.623.952,3.175,3.175,0,0,1,.217,1.208,3.265,3.265,0,0,1-.255,1.29,2.912,2.912,0,0,1-.764,1.05,3.726,3.726,0,0,1-1.276.712,5.442,5.442,0,0,1-1.769.263,5.7,5.7,0,0,1-1.373-.165,6.238,6.238,0,0,1-1.342-.51,1.523,1.523,0,0,1-.308-.2,1.361,1.361,0,0,1-.3-.33,1.093,1.093,0,0,1-.165-.435A.9.9,0,0,1,1181.8,933.266Z" fill="#5dbcce"/>
        <path id="패스_528" data-name="패스 528" d="M1194.823,935.4a3.966,3.966,0,0,1-1.005-.143,2.324,2.324,0,0,1-.974-.532v2.565a1,1,0,0,1-.338.81,1.165,1.165,0,0,1-.773.285,1.14,1.14,0,0,1-.8-.285,1.04,1.04,0,0,1-.315-.81v-9.255a1.108,1.108,0,0,1,.293-.818,1.06,1.06,0,0,1,1.792.533,2.656,2.656,0,0,1,1.088-.78,3.2,3.2,0,0,1,1.1-.225,4.209,4.209,0,0,1,1.441.255,3.511,3.511,0,0,1,1.26.8,3.973,3.973,0,0,1,.892,1.373,5.23,5.23,0,0,1,.337,1.972,4.759,4.759,0,0,1-.314,1.778,3.931,3.931,0,0,1-.863,1.335,3.88,3.88,0,0,1-1.275.847A4.034,4.034,0,0,1,1194.823,935.4Zm-1.934-3.825a2.371,2.371,0,0,0,.112.727,2.083,2.083,0,0,0,.322.63,1.591,1.591,0,0,0,.51.443,1.38,1.38,0,0,0,.676.165,1.99,1.99,0,0,0,.892-.188,1.821,1.821,0,0,0,.637-.51,2.09,2.09,0,0,0,.375-.772,3.771,3.771,0,0,0,.12-.975,2.991,2.991,0,0,0-.495-1.83,1.657,1.657,0,0,0-1.41-.66,1.687,1.687,0,0,0-.7.143,1.755,1.755,0,0,0-.548.382,1.686,1.686,0,0,0-.36.563,1.878,1.878,0,0,0-.127.7Z" fill="#5dbcce"/>
        <path id="패스_529" data-name="패스 529" d="M1199.908,925.016a1.383,1.383,0,0,1,.113-.548,1.441,1.441,0,0,1,.307-.457,1.469,1.469,0,0,1,.45-.307,1.422,1.422,0,0,1,1.111,0,1.464,1.464,0,0,1,.449.307,1.363,1.363,0,0,1,.3.457,1.487,1.487,0,0,1,.1.548,1.384,1.384,0,0,1-1.41,1.41,1.444,1.444,0,0,1-.555-.105,1.366,1.366,0,0,1-.45-.3,1.467,1.467,0,0,1-.307-.45A1.361,1.361,0,0,1,1199.908,925.016Zm2.521,9.15a1,1,0,0,1-.338.81,1.164,1.164,0,0,1-.773.285,1.14,1.14,0,0,1-.8-.285,1.036,1.036,0,0,1-.315-.81v-6.105a1.059,1.059,0,0,1,.315-.817,1.119,1.119,0,0,1,.8-.293,1.142,1.142,0,0,1,.773.293,1.027,1.027,0,0,1,.338.817Z" fill="#5dbcce"/>
        <path id="패스_530" data-name="패스 530" d="M1205.429,935.261a1.141,1.141,0,0,1-.8-.285,1.036,1.036,0,0,1-.315-.81v-6.12a1.032,1.032,0,0,1,.308-.8,1.157,1.157,0,0,1,1.38-.1,1,1,0,0,1,.4.495,1.654,1.654,0,0,1,.443-.45,2.381,2.381,0,0,1,.495-.255,2.26,2.26,0,0,1,.472-.12,2.873,2.873,0,0,1,.36-.03c.11,0,.215.006.315.015s.2.025.3.045a1.149,1.149,0,0,1,.248.082,1.053,1.053,0,0,1,.307.21,1.014,1.014,0,0,1,.24.383,1.158,1.158,0,0,1,.03.6.822.822,0,0,1-.157.375.672.672,0,0,1-.255.2.807.807,0,0,1-.315.06,1.648,1.648,0,0,1-.323-.03,2.145,2.145,0,0,0-.419-.045,1.107,1.107,0,0,0-.579.157,1.805,1.805,0,0,0-.464.406,2.523,2.523,0,0,0-.345.562,3.421,3.421,0,0,0-.218.63v3.735a1,1,0,0,1-.337.81A1.164,1.164,0,0,1,1205.429,935.261Z" fill="#5dbcce"/>
        <path id="패스_531" data-name="패스 531" d="M1214.338,935.441a4.765,4.765,0,0,1-1.612-.27,3.652,3.652,0,0,1-1.32-.81,3.789,3.789,0,0,1-.885-1.335,4.928,4.928,0,0,1-.323-1.86,5.364,5.364,0,0,1,.316-1.92,3.8,3.8,0,0,1,.87-1.372,3.5,3.5,0,0,1,1.312-.818,5.127,5.127,0,0,1,3.284,0,3.522,3.522,0,0,1,1.313.818,3.8,3.8,0,0,1,.87,1.372,5.364,5.364,0,0,1,.316,1.92,4.825,4.825,0,0,1-.331,1.86,3.873,3.873,0,0,1-.892,1.335,3.667,3.667,0,0,1-1.313.81A4.7,4.7,0,0,1,1214.338,935.441Zm0-6.885a1.7,1.7,0,0,0-.84.2,1.735,1.735,0,0,0-.592.548,2.478,2.478,0,0,0-.345.825,4.471,4.471,0,0,0-.113,1.035,2.809,2.809,0,0,0,.54,1.882,1.774,1.774,0,0,0,2.7,0,2.809,2.809,0,0,0,.541-1.882,4.587,4.587,0,0,0-.113-1.035,2.478,2.478,0,0,0-.345-.825,1.744,1.744,0,0,0-.592-.548A1.7,1.7,0,0,0,1214.338,928.556Z" fill="#5dbcce"/>
        <path id="패스_532" data-name="패스 532" d="M1227.538,933.341a2.085,2.085,0,0,1,.4.922.826.826,0,0,1-.284.758,1.048,1.048,0,0,1-.368.21,1.12,1.12,0,0,1-.465.053,1.3,1.3,0,0,1-.5-.165,1.459,1.459,0,0,1-.466-.443l-3.089-4.335-.57.63v3.165a1.036,1.036,0,0,1-.345.825,1.178,1.178,0,0,1-.8.3,1.158,1.158,0,0,1-.81-.3,1.055,1.055,0,0,1-.33-.825V925a1.082,1.082,0,0,1,.33-.833,1.142,1.142,0,0,1,.81-.307,1.161,1.161,0,0,1,.8.307,1.061,1.061,0,0,1,.345.833v3l3.345-3.6a1.918,1.918,0,0,1,.479-.383,1.418,1.418,0,0,1,.466-.157.891.891,0,0,1,.42.038.974.974,0,0,1,.33.187.825.825,0,0,1,.278.743,1.517,1.517,0,0,1-.428.847l-2.85,3.06Z" fill="#5dbcce"/>
        <path id="패스_533" data-name="패스 533" d="M1229.083,925.016a1.4,1.4,0,0,1,.112-.548,1.455,1.455,0,0,1,.758-.764,1.42,1.42,0,0,1,1.11,0,1.466,1.466,0,0,1,.45.307,1.344,1.344,0,0,1,.3.457,1.466,1.466,0,0,1,.1.548,1.384,1.384,0,0,1-1.41,1.41,1.444,1.444,0,0,1-.555-.105,1.365,1.365,0,0,1-.45-.3,1.489,1.489,0,0,1-.308-.45A1.376,1.376,0,0,1,1229.083,925.016Zm2.521,9.15a1,1,0,0,1-.338.81,1.165,1.165,0,0,1-.773.285,1.14,1.14,0,0,1-.8-.285,1.036,1.036,0,0,1-.315-.81v-6.105a1.059,1.059,0,0,1,.315-.817,1.119,1.119,0,0,1,.8-.293,1.143,1.143,0,0,1,.773.293,1.027,1.027,0,0,1,.338.817Z" fill="#5dbcce"/>
        <path id="패스_534" data-name="패스 534" d="M1236.4,928.751v3.99a1.937,1.937,0,0,0,.09.63c.061.171.226.255.5.255h.188a1.448,1.448,0,0,0,.2-.015c.06,0,.143,0,.247-.008a.876.876,0,0,1,.33.053.706.706,0,0,1,.308.218.84.84,0,0,1,.165.472.764.764,0,0,1-.345.78,1.345,1.345,0,0,1-.346.158,1.888,1.888,0,0,1-.314.067c-.181.03-.356.055-.526.075a2.085,2.085,0,0,1-.419.015,2.524,2.524,0,0,1-1.118-.247,2.029,2.029,0,0,1-.713-.608,2.319,2.319,0,0,1-.375-.855,4.616,4.616,0,0,1-.1-.99v-3.99h-.421a.946.946,0,0,1-.689-.248.952.952,0,0,1,0-1.3.93.93,0,0,1,.689-.255h.436v-.96a1.063,1.063,0,0,1,.314-.818,1.127,1.127,0,0,1,.8-.292,1.146,1.146,0,0,1,.772.292,1.026,1.026,0,0,1,.337.818v.96h1.005a.927.927,0,0,1,.7.255.972.972,0,0,1,0,1.3.943.943,0,0,1-.7.248Z" fill="#5dbcce"/>
      </g>
    </g>
    <rect id="사각형_676" data-name="사각형 676" width="129" height="130" transform="translate(125 328)" fill="none"/>
  </g>
</svg>
