<svg width="108" height="15" viewBox="0 0 108 15" fill="none" xmlns="http://www.w3.org/2000/svg">
<path d="M24.577 11.575C24.3572 11.7716 24.0717 11.8786 23.7769 11.875C23.4813 11.8832 23.1943 11.7756 22.977 11.575C22.8673 11.4681 22.7817 11.3391 22.726 11.1964C22.6703 11.0538 22.6458 10.9009 22.654 10.748V2.37497H20.6099C20.4735 2.38311 20.3368 2.36397 20.2078 2.31864C20.0789 2.27331 19.9603 2.20272 19.8589 2.111C19.769 2.0221 19.6984 1.91551 19.6518 1.79795C19.6051 1.68038 19.5834 1.55441 19.5879 1.42801C19.5829 1.29811 19.6043 1.16852 19.6509 1.04715C19.6975 0.925786 19.7683 0.815185 19.8589 0.722018C19.9593 0.628425 20.0776 0.556134 20.2067 0.509555C20.3358 0.462976 20.4729 0.44308 20.6099 0.451022H27.0739C27.2111 0.443001 27.3485 0.462853 27.4777 0.509433C27.607 0.556012 27.7255 0.628348 27.826 0.722018C27.9168 0.815047 27.9878 0.925631 28.0344 1.04703C28.0809 1.16843 28.1022 1.29808 28.097 1.42801C28.1018 1.55444 28.0802 1.68047 28.0335 1.79807C27.9868 1.91567 27.9161 2.02224 27.826 2.111C27.7245 2.20275 27.6056 2.27337 27.4765 2.3187C27.3474 2.36403 27.2105 2.38313 27.0739 2.37497H24.925V10.748C24.9325 10.9031 24.9051 11.0579 24.8449 11.201C24.7847 11.3441 24.6931 11.4719 24.577 11.575Z" fill="#5DBCCE"/>
<path d="M31.3561 4.38899C31.5102 4.20438 31.6896 4.04244 31.889 3.90797C32.2439 3.66886 32.6466 3.50991 33.0691 3.44202C33.2343 3.41404 33.4015 3.39895 33.5691 3.39698C34.0406 3.38828 34.5096 3.46764 34.952 3.63099C35.333 3.77416 35.6808 3.99366 35.974 4.27601C36.2547 4.55214 36.4724 4.88575 36.612 5.25398C36.7602 5.64003 36.8345 6.05051 36.831 6.464V10.748C36.8388 10.9029 36.8118 11.0576 36.7519 11.2008C36.692 11.3439 36.6008 11.4718 36.485 11.575C36.2652 11.7716 35.9798 11.8786 35.685 11.875C35.54 11.8804 35.3953 11.8567 35.2596 11.8051C35.1239 11.7536 34.9999 11.6754 34.895 11.575C34.7893 11.4659 34.7074 11.3361 34.6544 11.1937C34.6014 11.0514 34.5785 10.8996 34.587 10.748V6.44801C34.6034 6.11582 34.4965 5.78929 34.287 5.53101C34.1764 5.41229 34.0408 5.31962 33.89 5.25977C33.7392 5.19993 33.5769 5.1744 33.415 5.18501C33.2034 5.187 32.9942 5.23015 32.799 5.31202C32.5872 5.39812 32.3877 5.51212 32.206 5.65101C32.0214 5.79155 31.8536 5.95297 31.706 6.13203C31.5637 6.29915 31.447 6.48651 31.36 6.688V10.747C31.3677 10.902 31.3407 11.0566 31.2809 11.1997C31.221 11.3428 31.1298 11.4707 31.014 11.574C30.7942 11.7705 30.5088 11.8775 30.214 11.874C30.0689 11.8794 29.9244 11.8556 29.7887 11.8041C29.653 11.7526 29.529 11.6743 29.424 11.574C29.3184 11.4649 29.2365 11.3351 29.1834 11.1928C29.1304 11.0504 29.1075 10.8987 29.1161 10.747V1.14198C29.1081 0.989182 29.1312 0.836366 29.1842 0.692818C29.2371 0.549271 29.3188 0.418032 29.424 0.307015C29.5278 0.20451 29.6513 0.124265 29.7872 0.0712972C29.9231 0.0183293 30.0682 -0.00628612 30.214 -0.00102943C30.5102 -0.00417528 30.7964 0.106054 31.014 0.307015C31.1296 0.412177 31.2204 0.541528 31.2802 0.68586C31.3401 0.830193 31.3673 0.985913 31.36 1.14198L31.3561 4.38899Z" fill="#5DBCCE"/>
<path d="M40.3 8.53796C40.3074 8.79174 40.3689 9.04102 40.4803 9.26917C40.5917 9.49731 40.7504 9.69907 40.946 9.86096C41.3386 10.1312 41.8076 10.2683 42.284 10.252C42.8909 10.2282 43.4857 10.0744 44.028 9.80096C44.098 9.77096 44.1911 9.73396 44.3071 9.68896C44.4245 9.6429 44.5489 9.61721 44.675 9.61298C44.8086 9.60958 44.9408 9.64054 45.059 9.70294C45.203 9.79148 45.3118 9.92722 45.367 10.087C45.4424 10.246 45.4685 10.424 45.4421 10.598C45.4162 10.7394 45.3542 10.8716 45.262 10.9819C45.1751 11.0835 45.074 11.172 44.962 11.2449C44.852 11.3149 44.7616 11.37 44.691 11.41C44.3015 11.628 43.8844 11.7924 43.451 11.8989C43.0295 11.9952 42.5984 12.0429 42.1661 12.041C41.6274 12.0442 41.0917 11.9601 40.58 11.7919C40.0828 11.632 39.6277 11.3628 39.2481 11.0041C38.8685 10.6454 38.5739 10.2063 38.386 9.71893C38.1569 9.11685 38.0468 8.47602 38.0621 7.83197C38.056 7.2305 38.1447 6.63178 38.325 6.05792C38.4863 5.54344 38.7474 5.06576 39.0931 4.65198C39.4289 4.25632 39.8469 3.93858 40.318 3.72095C40.8323 3.48823 41.3916 3.37246 41.956 3.38196C42.4904 3.36959 43.0218 3.46445 43.519 3.66095C43.9393 3.83223 44.3184 4.09093 44.631 4.41992C44.9405 4.75518 45.1803 5.14846 45.337 5.57697C45.512 6.04684 45.6282 6.53657 45.683 7.03497C45.7135 7.25446 45.7107 7.47724 45.675 7.69592C45.6472 7.87229 45.5691 8.03689 45.45 8.16992C45.3184 8.30474 45.1524 8.40091 44.97 8.44794C44.7087 8.51448 44.4395 8.54479 44.17 8.53796H40.3ZM41.954 5.17096C41.7328 5.16216 41.5123 5.20356 41.3094 5.29205C41.1064 5.38055 40.9262 5.51384 40.782 5.68195C40.6538 5.82997 40.5523 5.99916 40.482 6.18195C40.4134 6.35662 40.3631 6.53793 40.332 6.72296H43.474C43.441 6.54244 43.3884 6.36606 43.3171 6.19696C43.2427 6.0175 43.1437 5.84923 43.023 5.69696C42.9002 5.54461 42.7495 5.41697 42.579 5.32092C42.3871 5.217 42.1722 5.16531 41.954 5.17096Z" fill="#5DBCCE"/>
<path d="M50.8181 9.87599C50.8923 9.69987 51.029 9.55738 51.202 9.47597C51.3505 9.41153 51.5128 9.38541 51.674 9.39998C51.8275 9.41335 51.9777 9.45148 52.119 9.51296C52.253 9.57296 52.356 9.62298 52.426 9.66298C52.7121 9.81919 53.0138 9.94518 53.326 10.039C53.6046 10.1188 53.8932 10.1592 54.183 10.159C54.6521 10.1803 55.115 10.0453 55.499 9.77498C55.6644 9.64762 55.7964 9.48197 55.8835 9.29225C55.9706 9.10253 56.0102 8.89445 55.999 8.68599C56.0056 8.49174 55.9621 8.29901 55.8726 8.12648C55.7831 7.95395 55.6506 7.80744 55.488 7.701C55.0489 7.41607 54.5793 7.18125 54.088 7.00099C53.6339 6.82301 53.1923 6.61489 52.7661 6.37801C52.3865 6.16737 52.0354 5.90929 51.721 5.61C51.432 5.33447 51.1993 5.00537 51.0359 4.64101C50.8709 4.25648 50.7891 3.84137 50.796 3.42299C50.7851 2.95996 50.8857 2.50108 51.089 2.08498C51.2815 1.70737 51.56 1.38023 51.902 1.12996C52.2778 0.860794 52.7007 0.664714 53.149 0.551957C53.6766 0.414924 54.2199 0.347733 54.765 0.352006C55.2026 0.35271 55.6381 0.415624 56.058 0.538957C56.4837 0.662198 56.8965 0.82596 57.291 1.02797C57.3881 1.07972 57.4791 1.14248 57.5619 1.21498C57.6653 1.30349 57.7542 1.40779 57.825 1.524C57.9009 1.64652 57.945 1.78611 57.9531 1.93001C57.9573 2.10025 57.9102 2.26778 57.8181 2.41097C57.7282 2.58375 57.5861 2.72377 57.412 2.81099C57.2683 2.87577 57.11 2.90165 56.9531 2.886C56.8061 2.87512 56.6616 2.84134 56.525 2.78597C56.4224 2.74381 56.3223 2.69607 56.225 2.64296C55.7708 2.38343 55.2599 2.23894 54.737 2.222C54.2856 2.18562 53.835 2.30221 53.4579 2.55299C53.3292 2.65492 53.2261 2.78545 53.1567 2.93422C53.0872 3.08299 53.0535 3.24588 53.058 3.40999C53.0542 3.61516 53.1056 3.81757 53.207 3.99599C53.3196 4.17927 53.4683 4.3378 53.644 4.46199C53.8533 4.61395 54.077 4.74491 54.3119 4.85298C54.5673 4.97298 54.8553 5.09334 55.176 5.21401C55.6174 5.3801 56.0451 5.5807 56.455 5.81398C56.814 6.01763 57.1425 6.27079 57.431 6.566C57.6982 6.84107 57.9101 7.16492 58.055 7.51997C58.2057 7.90563 58.2798 8.31697 58.273 8.73097C58.2763 9.17488 58.1892 9.61483 58.017 10.024C57.8442 10.4279 57.5823 10.7875 57.251 11.076C56.8761 11.3962 56.4413 11.6388 55.972 11.79C55.3996 11.9752 54.8006 12.0644 54.199 12.054C53.7353 12.0548 53.2733 11.9991 52.8231 11.888C52.3566 11.77 51.9051 11.5985 51.478 11.377C51.3677 11.3228 51.2643 11.2556 51.17 11.177C51.0525 11.0839 50.9512 10.972 50.8701 10.846C50.7843 10.7142 50.728 10.5655 50.705 10.41C50.6865 10.2246 50.726 10.038 50.8181 9.87599Z" fill="#5DBCCE"/>
<path d="M63.869 12.01C63.5286 12.0055 63.1901 11.9575 62.8619 11.867C62.4983 11.7707 62.1635 11.5878 61.886 11.334V13.904C61.8946 14.0561 61.8685 14.2083 61.8098 14.349C61.7511 14.4896 61.6612 14.6151 61.547 14.716C61.3324 14.9024 61.0571 15.0041 60.7729 15.002C60.4794 15.013 60.193 14.9105 59.973 14.716C59.8648 14.6114 59.7806 14.4847 59.726 14.3446C59.6715 14.2044 59.6479 14.0541 59.657 13.904V4.62899C59.6481 4.47955 59.6697 4.32985 59.7202 4.18893C59.7707 4.04801 59.8491 3.91878 59.9509 3.80899C60.086 3.67102 60.2562 3.57249 60.4431 3.52401C60.63 3.47554 60.8267 3.47892 61.0118 3.53384C61.1969 3.58876 61.3635 3.69316 61.4937 3.83572C61.624 3.97828 61.7129 4.15366 61.751 4.34298C62.0416 3.99354 62.4168 3.72434 62.8409 3.561C63.1915 3.42204 63.564 3.34584 63.941 3.33596C64.4336 3.33633 64.9223 3.42295 65.385 3.59195C65.8585 3.76501 66.2891 4.03789 66.6479 4.39199C67.0383 4.78353 67.3429 5.25215 67.542 5.76797C67.7807 6.39875 67.8955 7.06971 67.88 7.74398C67.8897 8.35264 67.7827 8.95751 67.5649 9.52597C67.3707 10.0262 67.0763 10.4815 66.6999 10.864C66.3346 11.2291 65.9002 11.5178 65.422 11.713C64.9289 11.9132 64.4012 12.0142 63.869 12.01ZM61.931 8.17697C61.9304 8.42397 61.9681 8.66961 62.0429 8.90499C62.1138 9.13222 62.223 9.34562 62.3659 9.53598C62.5027 9.71873 62.6769 9.87009 62.8769 9.97995C63.0848 10.0918 63.3179 10.1486 63.5539 10.145C63.8625 10.1524 64.1685 10.088 64.448 9.957C64.6965 9.83706 64.9146 9.66231 65.0859 9.44595C65.2633 9.21667 65.3914 8.95315 65.462 8.67196C65.5444 8.35292 65.5847 8.02448 65.582 7.69497C65.6186 7.0456 65.4431 6.40196 65.082 5.86099C64.9186 5.64354 64.7042 5.46953 64.4579 5.35427C64.2115 5.23902 63.9406 5.18604 63.6689 5.19998C63.4261 5.19642 63.1853 5.24519 62.963 5.34298C62.7571 5.43431 62.5707 5.56433 62.4139 5.72598C62.2571 5.888 62.1344 6.07973 62.053 6.28994C61.9666 6.5131 61.9235 6.75068 61.926 6.98996L61.931 8.17697Z" fill="#5DBCCE"/>
<path d="M68.9649 1.60796C68.9647 1.41916 69.0032 1.23231 69.0779 1.05894C69.1501 0.887823 69.2546 0.732345 69.3859 0.600998C69.5157 0.471098 69.6687 0.366589 69.837 0.292953C70.0131 0.218141 70.2026 0.179611 70.394 0.179611C70.5854 0.179611 70.7748 0.218141 70.951 0.292953C71.1189 0.366573 71.2715 0.471091 71.4009 0.600998C71.5309 0.731802 71.633 0.887558 71.701 1.05894C71.7686 1.23402 71.8025 1.42029 71.801 1.60796C71.8045 1.79448 71.7704 1.97985 71.7006 2.15288C71.6309 2.32591 71.5269 2.48306 71.3949 2.61497C71.263 2.74689 71.1058 2.85088 70.9328 2.92064C70.7598 2.9904 70.5745 3.02451 70.388 3.02098C70.1976 3.02286 70.0086 2.9872 69.832 2.916C69.6631 2.84704 69.5098 2.74499 69.3809 2.61595C69.2509 2.48625 69.1464 2.33327 69.0729 2.16496C68.9982 1.98895 68.9613 1.79915 68.9649 1.60796ZM71.4909 10.778C71.4995 10.9302 71.4736 11.0823 71.4148 11.2229C71.3561 11.3636 71.2662 11.4891 71.1519 11.59C70.9371 11.7766 70.6614 11.8783 70.3769 11.876C70.0834 11.8871 69.7969 11.7846 69.577 11.59C69.4686 11.4855 69.3843 11.3589 69.3298 11.2187C69.2752 11.0785 69.2517 10.9282 69.2609 10.778V4.65898C69.2522 4.50783 69.2759 4.35657 69.3304 4.21532C69.3849 4.07406 69.4689 3.94605 69.577 3.83995C69.7945 3.64044 70.0819 3.53479 70.3769 3.54594C70.6629 3.54372 70.9394 3.6486 71.1519 3.83995C71.2659 3.94257 71.3555 4.0694 71.4141 4.21111C71.4728 4.35281 71.499 4.50583 71.4909 4.65898V10.778Z" fill="#5DBCCE"/>
<path d="M74.498 11.875C74.2045 11.886 73.918 11.7835 73.698 11.589C73.5896 11.4846 73.5052 11.3579 73.4507 11.2177C73.3961 11.0775 73.3726 10.9272 73.3819 10.777V4.64395C73.3732 4.49626 73.3964 4.34843 73.4497 4.21041C73.503 4.0724 73.5853 3.94744 73.691 3.84396C73.8794 3.67967 74.1158 3.58072 74.3651 3.56179C74.6143 3.54287 74.8629 3.60501 75.074 3.73898C75.2585 3.8573 75.399 4.03298 75.474 4.23898C75.5916 4.0615 75.7423 3.90838 75.9179 3.78799C76.074 3.68327 76.2418 3.5973 76.4179 3.53195C76.5708 3.47505 76.7294 3.43482 76.891 3.41195C77.0106 3.39438 77.1312 3.38439 77.2521 3.38198C77.3621 3.38198 77.468 3.388 77.568 3.397C77.668 3.406 77.768 3.42198 77.868 3.44198C77.9539 3.45981 78.0374 3.48729 78.117 3.52395C78.2314 3.57512 78.3356 3.64625 78.425 3.73397C78.5329 3.84231 78.6149 3.97354 78.665 4.11795C78.7276 4.31183 78.738 4.51882 78.695 4.71798C78.675 4.85448 78.6209 4.98375 78.5379 5.09396C78.4705 5.1804 78.383 5.24907 78.2829 5.29397C78.1827 5.33487 78.0753 5.35527 77.967 5.35397C77.8583 5.35471 77.7498 5.34469 77.643 5.324C77.5049 5.29531 77.3641 5.28019 77.223 5.27896C77.0189 5.27692 76.8182 5.33129 76.643 5.436C76.4658 5.54399 76.3085 5.68165 76.178 5.84298C76.0385 6.01472 75.9222 6.20399 75.832 6.40597C75.7386 6.60867 75.6653 6.81999 75.613 7.03695V10.78C75.6223 10.9322 75.5966 11.0844 75.5381 11.2251C75.4795 11.3659 75.3895 11.4913 75.275 11.5919C75.0592 11.778 74.7829 11.8786 74.498 11.875Z" fill="#5DBCCE"/>
<path d="M83.426 12.055C82.8761 12.0582 82.3297 11.9666 81.811 11.784C81.317 11.611 80.8658 11.3341 80.488 10.9719C80.1004 10.5942 79.7979 10.1381 79.6009 9.634C79.3738 9.03933 79.2638 8.40639 79.2769 7.76998C79.2643 7.11468 79.3718 6.46259 79.5939 5.84597C79.7818 5.33002 80.0793 4.86092 80.4659 4.47097C80.8377 4.10308 81.287 3.82291 81.781 3.65096C82.8483 3.29021 84.0046 3.29021 85.072 3.65096C85.566 3.82332 86.0155 4.10343 86.3879 4.47097C86.7745 4.86092 87.072 5.33002 87.26 5.84597C87.4821 6.46259 87.5896 7.11468 87.577 7.76998C87.5903 8.40713 87.4774 9.04062 87.2449 9.634C87.0436 10.1375 86.739 10.5932 86.3509 10.9719C85.9748 11.3329 85.5263 11.6097 85.035 11.784C84.5185 11.9671 83.974 12.0588 83.426 12.055ZM83.426 5.15499C83.1327 5.14791 82.8426 5.21676 82.5839 5.35494C82.3459 5.48884 82.1427 5.67693 81.9909 5.90395C81.8263 6.15631 81.7091 6.43658 81.645 6.73098C81.567 7.07106 81.5291 7.41908 81.5319 7.76797C81.4802 8.44118 81.6722 9.11055 82.0729 9.65395C82.2398 9.84988 82.4471 10.0073 82.6807 10.1152C82.9143 10.2231 83.1686 10.279 83.426 10.279C83.6833 10.279 83.9375 10.2231 84.1711 10.1152C84.4047 10.0073 84.6121 9.84988 84.7789 9.65395C85.18 9.11069 85.3724 8.4413 85.3209 7.76797C85.3226 7.41914 85.2848 7.07124 85.208 6.73098C85.1437 6.4366 85.0264 6.15635 84.8619 5.90395C84.7098 5.67712 84.5067 5.48908 84.2689 5.35494C84.0097 5.21719 83.7194 5.1477 83.426 5.15499Z" fill="#5DBCCE"/>
<path d="M96.6539 9.95098C96.8623 10.2213 97.0013 10.5385 97.0589 10.8749C97.0806 11.0154 97.0659 11.1592 97.0159 11.2923C96.966 11.4254 96.8826 11.5434 96.7739 11.6349C96.6665 11.7294 96.541 11.8009 96.405 11.845C96.2551 11.8954 96.0962 11.9134 95.9389 11.8979C95.7627 11.8776 95.5926 11.8215 95.4389 11.733C95.2521 11.6216 95.0925 11.4699 94.9719 11.2889L91.8719 6.94494L91.301 7.57598V10.748C91.3088 10.9029 91.2816 11.0576 91.2217 11.2007C91.1619 11.3439 91.0707 11.4717 90.9549 11.5749C90.7351 11.7714 90.4498 11.8784 90.155 11.8749C89.8558 11.8833 89.5648 11.7759 89.343 11.5749C89.231 11.4694 89.1433 11.3408 89.0861 11.198C89.029 11.0552 89.0036 10.9016 89.0119 10.748V1.58995C89.0043 1.43521 89.0299 1.28061 89.087 1.13659C89.1441 0.992556 89.2314 0.862412 89.343 0.754933C89.5626 0.549527 89.8543 0.438895 90.155 0.446949C90.4511 0.444006 90.7372 0.554147 90.9549 0.754933C91.0703 0.860181 91.1612 0.989588 91.221 1.1339C91.2808 1.27821 91.3081 1.43391 91.301 1.58995V4.59594L94.6529 0.987965C94.7912 0.835017 94.9533 0.705322 95.1329 0.603932C95.2782 0.524881 95.4363 0.471771 95.5999 0.446949C95.7413 0.425662 95.8857 0.43872 96.0209 0.484974C96.1425 0.525009 96.2549 0.588498 96.3519 0.671925C96.4571 0.762742 96.5378 0.878627 96.5864 1.00884C96.635 1.13905 96.6499 1.27944 96.6299 1.41698C96.5813 1.73855 96.4309 2.03608 96.2009 2.26598L93.3449 5.33196L96.6539 9.95098Z" fill="#5DBCCE"/>
<path d="M98.2019 1.60796C98.202 1.4193 98.2401 1.23258 98.3139 1.05894C98.4598 0.715755 98.7318 0.44161 99.0739 0.292953C99.2497 0.218251 99.4388 0.179794 99.6299 0.179794C99.821 0.179794 100.01 0.218251 100.186 0.292953C100.354 0.366568 100.507 0.47108 100.637 0.600998C100.767 0.731535 100.869 0.887363 100.937 1.05894C101.007 1.23355 101.042 1.41992 101.042 1.60796C101.045 1.79448 101.011 1.97985 100.942 2.15288C100.872 2.32591 100.768 2.48306 100.636 2.61497C100.504 2.74689 100.347 2.85088 100.174 2.92064C100.001 2.9904 99.8154 3.02451 99.6289 3.02098C99.4385 3.02288 99.2495 2.98722 99.0729 2.916C98.9041 2.84696 98.7509 2.74493 98.622 2.61595C98.492 2.48595 98.3872 2.33306 98.3129 2.16496C98.2377 1.98898 98.2 1.79931 98.2019 1.60796ZM100.728 10.778C100.737 10.9302 100.71 11.0823 100.652 11.2229C100.593 11.3636 100.503 11.4891 100.389 11.59C100.174 11.7764 99.8991 11.8781 99.6149 11.876C99.3214 11.8871 99.0349 11.7846 98.815 11.59C98.7068 11.4855 98.6225 11.3588 98.5681 11.2186C98.5137 11.0784 98.4904 10.9281 98.4999 10.778V4.65898C98.4909 4.5079 98.5144 4.35664 98.5687 4.21538C98.6231 4.07412 98.7071 3.9461 98.815 3.83995C99.0325 3.64044 99.3199 3.53479 99.6149 3.54594C99.9005 3.54397 100.177 3.64884 100.389 3.83995C100.503 3.94257 100.592 4.0694 100.651 4.21111C100.71 4.35281 100.736 4.50583 100.728 4.65898V10.778Z" fill="#5DBCCE"/>
<path d="M105.537 5.35092V9.35092C105.532 9.56478 105.562 9.77804 105.627 9.98197C105.688 10.153 105.853 10.237 106.127 10.237H106.315C106.382 10.2366 106.449 10.2316 106.515 10.222C106.575 10.222 106.658 10.222 106.762 10.214C106.875 10.2102 106.987 10.2282 107.093 10.2669C107.214 10.3103 107.321 10.3857 107.402 10.485C107.504 10.6223 107.561 10.7872 107.567 10.958C107.594 11.108 107.575 11.2624 107.513 11.4017C107.452 11.541 107.35 11.6588 107.221 11.74C107.113 11.8088 106.996 11.8621 106.874 11.898C106.771 11.9292 106.666 11.9516 106.559 11.9649C106.377 11.9949 106.202 12.0199 106.032 12.0399C105.893 12.059 105.752 12.0641 105.612 12.055C105.225 12.0592 104.841 11.9743 104.492 11.807C104.209 11.6625 103.965 11.4539 103.777 11.198C103.595 10.9407 103.467 10.6492 103.401 10.341C103.332 10.0149 103.298 9.68227 103.301 9.34897V5.34897H102.879C102.753 5.35538 102.627 5.33667 102.509 5.29392C102.39 5.25116 102.282 5.18521 102.189 5.09995C102.025 4.9234 101.933 4.69112 101.933 4.44992C101.933 4.20872 102.025 3.97651 102.189 3.79996C102.281 3.71269 102.389 3.645 102.508 3.60098C102.626 3.55697 102.753 3.53758 102.879 3.54398H103.316V2.58194C103.307 2.43079 103.33 2.27949 103.385 2.13809C103.439 1.99669 103.522 1.86844 103.63 1.76193C103.848 1.56363 104.135 1.45851 104.43 1.46897C104.715 1.4671 104.991 1.57152 105.204 1.76193C105.318 1.86472 105.407 1.99174 105.466 2.13364C105.524 2.27553 105.55 2.4287 105.542 2.58194V3.54398H106.549C106.677 3.53595 106.805 3.55454 106.926 3.5986C107.046 3.64267 107.156 3.71122 107.249 3.79996C107.409 3.97862 107.498 4.21003 107.498 4.44992C107.498 4.68981 107.409 4.92129 107.249 5.09995C107.155 5.18659 107.045 5.25332 106.924 5.29611C106.804 5.33891 106.676 5.35691 106.549 5.34897L105.537 5.35092Z" fill="#5DBCCE"/>
<path d="M11.352 15C10.4469 14.9256 9.6075 14.4979 9.01538 13.8094C8.42326 13.1209 8.12606 12.2269 8.18799 11.3209L8.17596 3.67896C8.24799 3.42601 8.26038 3.15978 8.2121 2.90125C8.16381 2.64271 8.05618 2.39898 7.89771 2.18909C7.73923 1.97919 7.53425 1.80889 7.29883 1.69165C7.06341 1.57441 6.80396 1.51343 6.54095 1.51343C6.27795 1.51343 6.01857 1.57441 5.78314 1.69165C5.54772 1.80889 5.34267 1.97919 5.1842 2.18909C5.02573 2.39898 4.91816 2.64271 4.86987 2.90125C4.82159 3.15978 4.83391 3.42601 4.90594 3.67896C4.90594 3.67896 4.90594 3.68404 4.90594 3.68604L4.89398 4.90503C4.95535 5.81058 4.65783 6.70382 4.06573 7.39172C3.47364 8.07963 2.63457 8.50681 1.72998 8.58093H1.19196C0.993983 8.57377 0.806531 8.49012 0.669006 8.34753C0.531482 8.20495 0.45459 8.01463 0.45459 7.81653C0.45459 7.61843 0.531482 7.42799 0.669006 7.2854C0.806531 7.14281 0.993983 7.05916 1.19196 7.052H1.72998C2.22745 6.97423 2.6755 6.70694 2.98029 6.30615C3.28507 5.90536 3.42296 5.40215 3.36499 4.90198C3.36499 4.90198 3.36499 4.89692 3.36499 4.89392L3.37695 3.67493C3.30804 3.21941 3.33828 2.75439 3.46564 2.31165C3.59299 1.8689 3.81446 1.45889 4.11487 1.10962C4.41528 0.760344 4.78759 0.480112 5.2063 0.287964C5.62501 0.0958156 6.08026 -0.00366211 6.54095 -0.00366211C7.00165 -0.00366211 7.4569 0.0958156 7.87561 0.287964C8.29432 0.480112 8.66663 0.760344 8.96704 1.10962C9.26745 1.45889 9.48892 1.8689 9.61627 2.31165C9.74363 2.75439 9.77387 3.21941 9.70496 3.67493L9.71698 11.317C9.64495 11.57 9.63256 11.8361 9.68085 12.0946C9.72913 12.3531 9.83677 12.597 9.99524 12.8069C10.1537 13.0168 10.3587 13.1871 10.5941 13.3043C10.8295 13.4216 11.089 13.4825 11.352 13.4825C11.615 13.4825 11.8744 13.4216 12.1098 13.3043C12.3452 13.1871 12.5502 13.0168 12.7087 12.8069C12.8671 12.597 12.9748 12.3531 13.0231 12.0946C13.0714 11.8361 13.059 11.57 12.9869 11.317L12.9949 10.0399C12.9336 9.13426 13.2311 8.24092 13.8232 7.55286C14.4152 6.86479 15.2543 6.43729 16.1589 6.36292H16.5729C16.7757 6.36292 16.9702 6.44354 17.1135 6.58691C17.2569 6.73029 17.3375 6.92468 17.3375 7.12744C17.3375 7.3302 17.2569 7.52472 17.1135 7.66809C16.9702 7.81146 16.7757 7.89197 16.5729 7.89197H16.1589C15.6615 7.96974 15.2134 8.23703 14.9086 8.63782C14.6038 9.03861 14.466 9.54182 14.524 10.042L14.516 11.319C14.5785 12.2253 14.2814 13.1198 13.6893 13.8087C13.0971 14.4977 12.2574 14.9256 11.352 15Z" fill="url(#paint0_linear_1_611)"/>
<defs>
<linearGradient id="paint0_linear_1_611" x1="1.34938" y1="7.49817" x2="16.6453" y2="7.49817" gradientUnits="userSpaceOnUse">
<stop stop-color="#BBF0DE"/>
<stop offset="1" stop-color="#0180BE"/>
</linearGradient>
</defs>
</svg>
